<?xml version="1.0" standalone="no"?><!DOCTYPE svg PUBLIC "-//W3C//DTD SVG 1.1//EN" "http://www.w3.org/Graphics/SVG/1.1/DTD/svg11.dtd"><svg t="1591097490071" class="icon" viewBox="0 0 1024 1024" version="1.1" xmlns="http://www.w3.org/2000/svg" p-id="5161" xmlns:xlink="http://www.w3.org/1999/xlink" width="200" height="200"><defs><style type="text/css"></style></defs><path d="M48.213313 975.941226a265.412801 655.82931 45 1 0 927.482704-927.482705 265.412801 655.82931 45 1 0-927.482704 927.482705Z" fill="#EAC060" p-id="5162"></path><path d="M704.026162 695.389022C492.532213 906.88297 256.609723 1028.145369 122.802938 1005.477444c569.559145-183.104022 872.605105-849.937179 891.091569-891.311646 23.10808 133.806785-98.374396 369.729275-309.868345 581.223224z" fill="#F4BEA6" p-id="5163"></path><path d="M152.073172 1023.74383a152.293249 152.293249 0 0 1-111.79909-39.833927c-109.598321-109.598321 12.764463-403.401049 276.856802-667.493388S874.365721-69.378378 984.184118 40.219943c99.034627 99.254704 9.023155 352.123119-214.134871 601.470303a11.003847 11.003847 0 0 1-15.625464 0 11.223924 11.223924 0 0 1 0-15.625463C966.137809 389.702139 1058.570127 144.096263 969.438963 54.965098c-99.254704-99.254704-384.474431 24.868695-635.802307 276.196572S-41.81462 867.92935 57.440084 966.963977c46.656313 46.87639 137.76817 44.01539 256.389646-5.501923s256.389646-147.671633 379.412661-270.694648l5.722001-5.501924a10.783771 10.783771 0 0 1 15.405386 0 11.003847 11.003847 0 0 1 0 15.625463l-5.942077 5.722001c-124.78363 125.003707-261.89157 222.717873-386.235047 275.316264a442.794823 442.794823 0 0 1-170.119482 41.81462z" p-id="5164"></path><path d="M666.356758 357.740873a121.042322 40.274082 45 1 0 56.956152-56.956152 121.042322 40.274082 45 1 0-56.956152 56.956152Z" fill="#EA5B34" p-id="5165"></path><path d="M766.968169 430.636451a83.849318 83.849318 0 0 1-36.75285-10.78377 324.393424 324.393424 0 0 1-125.884016-125.443861c-16.725848-33.451696-10.783771-49.957468-2.861-57.880238 23.768311-23.988388 83.189087 10.563694 129.625323 56.99993s80.76824 105.857013 56.99993 129.625323a28.610003 28.610003 0 0 1-21.127387 7.482616z m-144.150402-180.243021a7.262539 7.262539 0 0 0-5.722 1.760615c-2.640923 2.420846-2.861 13.204617 6.822385 32.351312a306.787268 306.787268 0 0 0 116.200629 116.200629c19.146695 9.463309 29.930465 9.463309 32.571389 6.822386 7.262539-7.262539-9.023155-50.177545-57.220007-98.374397-40.934313-41.374467-77.90724-58.760546-92.652396-58.760545z" p-id="5166"></path><path d="M502.616837 521.515693a121.042322 40.274082 45 1 0 56.956153-56.956152 121.042322 40.274082 45 1 0-56.956153 56.956152Z" fill="#EA5B34" p-id="5167"></path><path d="M603.230919 594.153625c-28.83008 0-72.625393-28.83008-108.718013-64.702623a293.802728 293.802728 0 0 1-54.13893-71.745086c-16.725848-33.451696-10.783771-49.957468-2.861-57.880238 23.768311-23.988388 83.189087 10.563694 129.625323 56.99993s80.10801 105.857013 58.100315 129.625324a28.16985 28.16985 0 0 1-22.007695 7.702693z m-144.370479-180.463099a8.142847 8.142847 0 0 0-5.722001 1.540539c-2.640923 2.640923-2.861 13.204617 6.822386 32.571388a274.435956 274.435956 0 0 0 50.177544 66.023085c48.196852 48.196852 91.111857 64.262469 98.594473 56.99993s-8.803078-50.177545-57.220006-98.374396c-40.714236-40.934313-77.687163-58.760546-92.432319-58.760546z" p-id="5168"></path><path d="M338.870471 685.274951a121.042322 40.274082 45 1 0 56.956152-56.956152 121.042322 40.274082 45 1 0-56.956152 56.956152Z" fill="#EA5B34" p-id="5169"></path><path d="M439.493668 758.110952a83.849318 83.849318 0 0 1-36.75285-10.78377 297.98419 297.98419 0 0 1-71.745086-54.13893c-46.216159-46.656313-79.887933-105.857013-57.880238-129.625323s83.189087 10.563694 129.625324 56.99993 80.988317 105.857013 56.99993 129.625323a28.610003 28.610003 0 0 1-20.24708 7.92277z m-144.370479-180.683175a8.142847 8.142847 0 0 0-5.722 1.540538c-7.262539 7.482616 8.803078 50.397621 56.99993 98.594474a274.435956 274.435956 0 0 0 66.023084 50.177544c19.146695 9.463309 29.930465 9.463309 32.571389 6.822386 7.262539-7.262539-8.803078-50.177545-57.220007-98.374397-40.494159-40.934313-77.687163-58.760546-92.652396-58.760545z" p-id="5170"></path></svg>