<?xml version="1.0" standalone="no"?><!DOCTYPE svg PUBLIC "-//W3C//DTD SVG 1.1//EN" "http://www.w3.org/Graphics/SVG/1.1/DTD/svg11.dtd"><svg t="1591097528077" class="icon" viewBox="0 0 1024 1024" version="1.1" xmlns="http://www.w3.org/2000/svg" p-id="6460" xmlns:xlink="http://www.w3.org/1999/xlink" width="200" height="200"><defs><style type="text/css"></style></defs><path d="M925.94717 898.415094c0 46.563019-61.343396 94.092075-136.984151 94.092076S651.978868 944.495094 651.978868 898.415094s61.343396-84.528302 136.984151-84.528302S925.94717 851.272453 925.94717 898.415094z" fill="#876046" p-id="6461"></path><path d="M512 512m-463.698113 0a463.698113 463.698113 0 1 0 927.396226 0 463.698113 463.698113 0 1 0-927.396226 0Z" fill="#B7E233" p-id="6462"></path><path d="M330.095094 513.062642a210.789434 182.194717 90 1 0 364.389434 0 210.789434 182.194717 90 1 0-364.389434 0Z" fill="#FFFFFF" opacity=".4" p-id="6463"></path><path d="M415.396226 512a117.276981 96.603774 90 1 0 193.207548 0 117.276981 96.603774 90 1 0-193.207548 0Z" fill="#FFF4C0" p-id="6464"></path><path d="M423.370058 235.838096a38.641509 14.490566 75 1 0 27.993624-7.500869 38.641509 14.490566 75 1 0-27.993624 7.500869Z" fill="#550000" opacity=".5" p-id="6465"></path><path d="M577.316156 269.497156a14.490566 38.641509 15 1 0 20.002317-74.649664 14.490566 38.641509 15 1 0-20.002317 74.649664Z" fill="#550000" opacity=".5" p-id="6466"></path><path d="M689.755306 334.729371a14.490566 38.641509 45 1 0 54.647346-54.647347 14.490566 38.641509 45 1 0-54.647346 54.647347Z" fill="#550000" opacity=".5" p-id="6467"></path><path d="M754.665408 447.322162a14.490566 38.641509 75 1 0 74.649664-20.002317 14.490566 38.641509 75 1 0-74.649664 20.002317Z" fill="#550000" opacity=".5" p-id="6468"></path><path d="M788.023425 601.340595a38.641509 14.490566 15 1 0 7.500869-27.993624 38.641509 14.490566 15 1 0-7.500869 27.993624Z" fill="#550000" opacity=".5" p-id="6469"></path><path d="M706.380221 727.384005a38.641509 14.490566 45 1 0 20.492755-20.492755 38.641509 14.490566 45 1 0-20.492755 20.492755Z" fill="#550000" opacity=".5" p-id="6470"></path><path d="M572.665929 795.694485a38.641509 14.490566 75 1 0 27.993624-7.500869 38.641509 14.490566 75 1 0-27.993624 7.500869Z" fill="#550000" opacity=".5" p-id="6471"></path><path d="M426.702361 829.121696a14.490566 38.641509 15 1 0 20.002317-74.649664 14.490566 38.641509 15 1 0-20.002317 74.649664Z" fill="#550000" opacity=".5" p-id="6472"></path><path d="M279.564365 743.915632a14.490566 38.641509 45 1 0 54.647347-54.647347 14.490566 38.641509 45 1 0-54.647347 54.647347Z" fill="#550000" opacity=".5" p-id="6473"></path><path d="M194.71454 596.711867a14.490566 38.641509 75 1 0 74.649664-20.002317 14.490566 38.641509 75 1 0-74.649664 20.002317Z" fill="#550000" opacity=".5" p-id="6474"></path><path d="M228.398885 450.726801a38.641509 14.490566 15 1 0 7.500869-27.993624 38.641509 14.490566 15 1 0-7.500869 27.993624Z" fill="#550000" opacity=".5" p-id="6475"></path><path d="M297.19699 317.103777a38.641509 14.490566 45 1 0 20.492755-20.492755 38.641509 14.490566 45 1 0-20.492755 20.492755Z" fill="#550000" opacity=".5" p-id="6476"></path><path d="M423.370058 235.838096a38.641509 14.490566 75 1 0 27.993624-7.500869 38.641509 14.490566 75 1 0-27.993624 7.500869Z" fill="#550000" opacity=".5" p-id="6477"></path><path d="M503.595472 251.073208a19.224151 8.69434 90 1 0 17.388679 0 19.224151 8.69434 90 1 0-17.388679 0Z" fill="#550000" opacity=".5" p-id="6478"></path><path d="MNaN NaNaNaN NaN NaN 1 0 NaN NaN NaN NaN NaN 1 0 NaN NaNZ" fill="#550000" opacity=".5" p-id="6479"></path><path d="M721.52757 391.393378a8.69434 19.224151 60 1 0 33.297206-19.224151 8.69434 19.224151 60 1 0-33.297206 19.224151Z" fill="#550000" opacity=".5" p-id="6480"></path><path d="M753.702642 512.289811a19.224151 8.69434 0 1 0 38.448301 0 19.224151 8.69434 0 1 0-38.448301 0Z" fill="#550000" opacity=".5" p-id="6481"></path><path d="MNaN NaNaNaN NaN NaN 1 0 NaN NaN NaN NaN NaN 1 0 NaN NaNZ" fill="#550000" opacity=".5" p-id="6482"></path><path d="M634.674688 742.527226a19.224151 8.69434 60 1 0 15.059038-8.69434 19.224151 8.69434 60 1 0-15.059038 8.69434Z" fill="#550000" opacity=".5" p-id="6483"></path><path d="M503.015849 772.926792a19.224151 8.69434 90 1 0 17.388679 0 19.224151 8.69434 90 1 0-17.388679 0Z" fill="#550000" opacity=".5" p-id="6484"></path><path d="M371.659815 754.577396a8.69434 19.224151 30 1 0 19.224151-33.297206 8.69434 19.224151 30 1 0-19.224151 33.297206Z" fill="#550000" opacity=".5" p-id="6485"></path><path d="M269.16168 651.818871a8.69434 19.224151 60 1 0 33.297207-19.224151 8.69434 19.224151 60 1 0-33.297207 19.224151Z" fill="#550000" opacity=".5" p-id="6486"></path><path d="M231.849057 511.710189a19.224151 8.69434 0 1 0 38.448301 0 19.224151 8.69434 0 1 0-38.448301 0Z" fill="#550000" opacity=".5" p-id="6487"></path><path d="M281.812528 388.858078a19.224151 8.69434 30 1 0 8.69434-15.059038 19.224151 8.69434 30 1 0-8.69434 15.059038Z" fill="#550000" opacity=".5" p-id="6488"></path><path d="M374.252731 290.155212a19.224151 8.69434 60 1 0 15.059038-8.69434 19.224151 8.69434 60 1 0-15.059038 8.69434Z" fill="#550000" opacity=".5" p-id="6489"></path><path d="M503.595472 251.073208a19.224151 8.69434 90 1 0 17.388679 0 19.224151 8.69434 90 1 0-17.388679 0Z" fill="#550000" opacity=".5" p-id="6490"></path><path d="M508.715472 748.196226c0 196.395472 100.178113 196.878491 223.830943 196.878491S956.377358 944.591698 956.377358 748.196226c0-140.655094-125.584906-312.706415-223.830943-312.706415S508.715472 607.541132 508.715472 748.196226z" fill="#F2815F" p-id="6491"></path><path d="M565.615094 670.140377C565.615094 801.135094 627.924528 801.811321 703.855094 801.811321s138.143396 0 138.143397-131.284529c0-93.802264-77.283019-208.470943-138.143397-208.470943S565.615094 576.338113 565.615094 670.140377z" fill="#FFFFFF" opacity=".2" p-id="6492"></path><path d="M732.739623 935.41434a77.669434 38.158491 0 1 0 155.338868 0 77.669434 38.158491 0 1 0-155.338868 0Z" fill="#78B116" p-id="6493"></path><path d="M577.01434 935.41434a77.669434 38.158491 0 1 0 155.338868 0 77.669434 38.158491 0 1 0-155.338868 0Z" fill="#78B116" p-id="6494"></path><path d="M729.994232 944.559803a41.056604 72.259623 54.69 1 0 117.933011-83.532132 41.056604 72.259623 54.69 1 0-117.933011 83.532132Z" fill="#A5CB2D" p-id="6495"></path><path d="M654.378156 931.351984a72.259623 41.056604 35.3 1 0 47.449743-67.015675 72.259623 41.056604 35.3 1 0-47.449743 67.015675Z" fill="#A5CB2D" p-id="6496"></path><path d="M687.239245 887.209057a65.400755 45.30717 90 1 0 90.61434 0 65.400755 45.30717 90 1 0-90.61434 0Z" fill="#B7E233" p-id="6497"></path><path d="M685.790189 559.818868m-54.967547 0a54.967547 54.967547 0 1 0 109.935094 0 54.967547 54.967547 0 1 0-109.935094 0Z" fill="#FFFFFF" opacity=".7" p-id="6498"></path><path d="M512 1024A512 512 0 0 1 512 0a24.150943 24.150943 0 0 1 0 48.301887 463.698113 463.698113 0 0 0 0 927.396226 469.784151 469.784151 0 0 0 92.739623-9.660377 24.923774 24.923774 0 0 1 13.041509 0.869434 109.741887 109.741887 0 0 0 36.902642 6.375849 102.110189 102.110189 0 0 0 57.962264-17.098868 24.150943 24.150943 0 0 1 19.320754-3.670943 23.861132 23.861132 0 0 1 19.320755 3.670943 101.916981 101.916981 0 0 0 57.962264 17.098868c34.197736 0 65.400755-15.36 77.283019-38.64151l2.318491-4.250566a24.150943 24.150943 0 0 1 9.660377-17.098868c38.641509-28.981132 56.416604-81.533585 56.416604-165.868679a284.498113 284.498113 0 0 0-8.404528-66.366792 24.05434 24.05434 0 0 1 0.77283-13.81434 463.698113 463.698113 0 0 0-207.118491-558.85283 24.150943 24.150943 0 1 1 23.861132-41.926038 512 512 0 0 1 232.525283 611.115472 327.486792 327.486792 0 0 1 8.114717 70.617358c0 93.898868-22.122264 158.72-67.622641 197.844529V946.716981l-6.182642 11.495849c-20.769811 38.641509-67.622642 63.565283-120.175094 63.565283a153.213585 153.213585 0 0 1-75.640755-19.320755 17.098868 17.098868 0 0 1-4.443773 0 152.247547 152.247547 0 0 1-75.640755 19.320755 161.424906 161.424906 0 0 1-46.659623-6.955471A519.631698 519.631698 0 0 1 512 1024z" fill="#876046" p-id="6499"></path><path d="M649.273962 18.644528l-4.153962-1.062641-3.187925-0.869434a21.929057 21.929057 0 0 0-6.472452-0.966038 24.150943 24.150943 0 0 0-6.665661 47.432453l4.057359 1.159245 3.381132 0.966038a24.344151 24.344151 0 0 0 6.472453 0.869434 24.150943 24.150943 0 0 0 6.472452-47.432453z" fill="#876046" p-id="6500"></path></svg>