<?xml version="1.0" standalone="no"?><!DOCTYPE svg PUBLIC "-//W3C//DTD SVG 1.1//EN" "http://www.w3.org/Graphics/SVG/1.1/DTD/svg11.dtd"><svg t="1591097502336" class="icon" viewBox="0 0 1024 1024" version="1.1" xmlns="http://www.w3.org/2000/svg" p-id="5323" xmlns:xlink="http://www.w3.org/1999/xlink" width="200" height="200"><defs><style type="text/css"></style></defs><path d="M592 178L338.116 558.702C426.992 606.45 477.91 638.215 490.866 654c19.438 23.677 75.298 46.917 88.216 58.412 8.612 7.664 22.318 19.776 41.119 36.335 80.868-115.528 128.297-186.25 142.287-212.168 20.984-38.877 83.124-111.016 92.318-123.993 6.13-8.651 19.84-34.42 41.13-77.309-65.038-37.012-106.055-61.096-123.051-72.252-25.494-16.734-35.357-21.57-61.385-28.63C694.148 229.687 654.315 210.89 592 178z" fill="#A3BD79" p-id="5324"></path><path d="M596.6 727.932c-7.211-6.37-13.05-11.544-17.518-15.52-8.018-7.135-32.581-18.795-54.709-32.276 2.285-32.179 7.894-91.587 12.743-91.587 4.176 0 83.751-77.932 238.726-233.795L784 373.687l40.166 33.188C769.35 474.837 734.473 520.04 719.53 542.486c-22.414 33.669-65.357 113.552-81.301 135.128-9.807 13.271-23.684 30.044-41.63 50.318z" fill="#97B26A" p-id="5325"></path><path d="M587.008 174.671a6 6 0 0 1 7.793-1.977c61.87 32.655 101.52 51.366 118.27 55.91 26.16 7.096 36.561 11.982 63.106 29.405 16.849 11.059 57.81 35.11 122.726 72.054a6 6 0 0 1 2.406 7.882c-21.462 43.235-35.218 69.091-41.607 78.11-2.301 3.247-36.994 46.095-49.195 61.836-3.12 4.025-6.108 7.926-8.97 11.714-15.564 20.598-27.068 37.41-33.77 49.824-14.15 26.214-61.61 96.985-142.65 212.759a6 6 0 0 1-8.882 1.062c-18.808-16.566-32.52-28.683-41.142-36.355-2.69-2.394-8.03-5.741-17.288-10.934 1.114 0.625-21.136-11.664-27.837-15.537-21.184-12.243-35.315-22.355-43.739-32.617-12.224-14.891-62.992-46.564-150.952-93.819a6 6 0 0 1-2.152-8.614L587.008 174.67zM346.767 556.545c86.185 46.49 135.343 77.332 148.737 93.648 7.23 8.806 20.485 18.292 40.468 29.841 6.581 3.804 28.728 16.035 27.704 15.46 10.056 5.642 15.817 9.253 19.395 12.436 7.814 6.954 19.836 17.581 36.06 31.879 78.359-112.035 124.469-180.87 138.077-206.08 7.06-13.082 18.85-30.31 34.754-51.358 2.893-3.829 5.911-7.769 9.06-11.832 12.411-16.011 46.851-58.547 48.888-61.422 5.632-7.95 18.441-31.919 38.127-71.432-62.304-35.494-101.737-58.678-118.444-69.644-25.535-16.76-34.795-21.11-59.664-27.856-17.492-4.745-55.93-22.794-115.94-54.355L346.768 556.545z" fill="#8BA365" p-id="5326"></path><path d="M512 198L258.116 578.702C346.992 626.45 397.91 658.215 410.866 674c19.438 23.677 75.298 46.917 88.216 58.412 8.612 7.664 22.318 19.776 41.119 36.335 80.868-115.528 128.297-186.25 142.287-212.168 20.984-38.877 83.124-111.016 92.318-123.993 6.13-8.651 19.84-34.42 41.13-77.309-65.038-37.012-106.055-61.096-123.051-72.252-25.494-16.734-35.357-21.57-61.385-28.63C614.148 249.687 574.315 230.89 512 198z" fill="#A3BD79" p-id="5327"></path><path d="M516.6 747.932c-7.211-6.37-13.05-11.544-17.518-15.52-8.018-7.135-32.581-18.795-54.709-32.276 2.285-32.179 7.894-91.587 12.743-91.587 4.176 0 83.751-77.932 238.726-233.795L704 393.687l40.166 33.188C689.35 494.837 654.473 540.04 639.53 562.486c-22.414 33.669-65.357 113.552-81.301 135.128-9.807 13.271-23.684 30.044-41.63 50.318z" fill="#97B26A" p-id="5328"></path><path d="M507.008 194.671a6 6 0 0 1 7.793-1.977c61.87 32.655 101.52 51.366 118.27 55.91 26.16 7.096 36.561 11.982 63.106 29.405 16.849 11.059 57.81 35.11 122.726 72.054a6 6 0 0 1 2.406 7.882c-21.462 43.235-35.218 69.091-41.607 78.11-2.301 3.247-36.994 46.095-49.195 61.836-3.12 4.025-6.108 7.926-8.97 11.714-15.564 20.598-27.068 37.41-33.77 49.824-14.15 26.214-61.61 96.985-142.65 212.759a6 6 0 0 1-8.882 1.062c-18.808-16.566-32.52-28.683-41.142-36.355-2.69-2.394-8.03-5.741-17.288-10.934 1.114 0.625-21.136-11.664-27.837-15.537-21.184-12.243-35.315-22.355-43.739-32.617-12.224-14.891-62.992-46.564-150.952-93.819a6 6 0 0 1-2.152-8.614L507.008 194.67zM266.767 576.545c86.185 46.49 135.343 77.332 148.737 93.648 7.23 8.806 20.485 18.292 40.468 29.841 6.581 3.804 28.728 16.035 27.704 15.46 10.056 5.642 15.817 9.253 19.395 12.436 7.814 6.954 19.836 17.581 36.06 31.879 78.359-112.035 124.469-180.87 138.077-206.08 7.06-13.082 18.85-30.31 34.754-51.358 2.893-3.829 5.911-7.769 9.06-11.832 12.411-16.011 46.851-58.547 48.888-61.422 5.632-7.95 18.441-31.919 38.127-71.432-62.304-35.494-101.737-58.678-118.444-69.644-25.535-16.76-34.795-21.11-59.664-27.856-17.492-4.745-55.93-22.794-115.94-54.355L266.768 576.545z" fill="#8BA365" p-id="5329"></path><path d="M432 228L178.116 608.702C266.992 656.45 317.91 688.215 330.866 704c19.438 23.677 75.298 46.917 88.216 58.412 8.612 7.664 22.318 19.776 41.119 36.335 80.868-115.528 128.297-186.25 142.287-212.168 20.984-38.877 83.124-111.016 92.318-123.993 6.13-8.651 19.84-34.42 41.13-77.309-65.038-37.012-106.055-61.096-123.051-72.252-25.494-16.734-35.357-21.57-61.385-28.63C534.148 279.687 494.315 260.89 432 228z" fill="#A3BD79" p-id="5330"></path><path d="M698.326 363.777c-8.642 10.424-15.17 15.637-19.583 15.637-8 0-24.88 21.075-30.173 30.809-5.293 9.734-21.585 11.565-21.585 16.652v27.69c0 6.87-14.733 17.873-14.733 23.96s-10.976 10.249-16.095 10.249h-19.332v18.938c0 1.735-2.292 7.735-6.875 18.001l-33.06 46.082s-6.845 22.794-17.06 22.794H512l-8.2 23.733-17.987 12.928-42.49 20.608 5.738 21.422c-3.825 16.447-7.003 24.671-9.535 24.671-3.797 0-8.403 6.049-14.202 6.049-5.8 0-10.108 3.641-10.108 15.19s-7.893 18.893-7.893 27.29c0 4.37-1.4 5.931-2.744 6.423-6.905-3.96-15.29-8.466-24.009-13.353v-1.467s10.336-14.057 10.336-18.893 4.888-11.549 4.888-15.19 6.358-6.049 6.358-6.049 28.97-16.734 28.97-24.671c0-7.937-5.798-6.176-5.798-21.422s8.54-14.25 14.202-20.608c5.663-6.358 3.798-7.223 17.5-12.928 13.702-5.705 9.743-8.299 18.288-13.74 8.546-5.44 16.053-9.993 16.053-9.993s6.205-24.731 6.205-32.103 7.58-10.985 14.428-18.771c6.848-7.786 7.83-11.976 7.83-11.976L536.89 520l9.213-31.226 5.397-16.336c9.04-5.985 15.19-8.978 18.45-8.978 4.89 0 19.494-22.74 19.494-22.74s11.832-21.692 11.832-30.497 18.256-21.914 18.256-30.81c0-8.895 11.255-16.805 19.998-16.805 5.293 0 8.264-9.279 8.914-27.837 13.542 8.008 30.17 17.677 49.882 29.006zM582.295 295.036c8.939 4.19 17.796 9.592 30.59 17.99a367.589 367.589 0 0 0 5.233 3.364c-6.468 6.478-18.014 15.518-24.171 22.51-8.858 10.059-16.101 19.819-23.318 23.708-7.216 3.89-19.129 18.925-19.129 23.101 0 4.176-9.215 5.94-9.215 15.02 0 9.08 9.215 20.596 9.215 26.146 0 5.551-9.215 13.845-18.922 20.983-9.707 7.137-4.122 6.707-12.748 6.707-8.627 0-14.167 11.143-14.167 11.143s-8.091 17.241-8.091 23.066c0 5.824-16.768 18.358-22.258 23.226-5.49 4.868-14.088 13.713-18.288 13.713-4.2 0-6.718 18.002-6.718 26.836v27.71c0 4.865-20.799 5.85-20.799 5.85s-14.293 12.1-22.186 19.397c-7.893 7.298-16.417 19.801-16.417 19.801l8.042 24.753s-14.493 23.22-18.378 23.22-18.42 16.539-18.42 16.539l-13.738 21.986s-2.713 1.325-6.522 2.852c-4.322-3.516-8.088-7.082-11.023-10.657-2.362-2.877-5.984-6.284-10.867-10.222v-11.784-8.714l21.305-9.055 34.79-14.165c-19.664-12.995-26.28-21.247-19.847-24.753 9.65-5.26 5.901-27.099 5.901-27.099l45.174-17.949s-26.753-39.286-26.753-41.397c0-2.11 10.336-7.99 18.378-13.149 8.042-5.159 36.227-20.604 40.578-25.498 4.352-4.894 17.5-11.441 17.5-11.441l4.2-23.066 8.83-17.85s5.258-7.138 10.748-7.138c3.66 0 9.25-4.615 16.768-13.845L512 412.504l7.83-20.855 12.748-20.49v-8.55l9.707-23.71c12.325-6.705 20.196-10.058 23.612-10.058 3.416 0 8.848-11.256 16.296-33.767l0.102-0.038zM265.12 657.477c-15.692-9.348-34.058-19.822-55.098-31.422l0.635-0.357 10.357-29.26 14.754-10.328 9.156-12.215s4.393-4.607 4.393-11.409c0-6.802 7.671-11.02 11.591-11.02 3.92 0 14.198-12.604 18.07-12.604 3.871 0 8.222-17.075 18.12-17.075 9.898 0 10.252-8.287 10.252-9.787s11.073-9.62 12.65-9.62 13.288-24.645 21.305-29.942c5.344-3.531 16.467-9.489 33.369-17.873l5.896 11.167-5.896 19.232v11.332l-27.608 6.084H327.02c-6.268 0-7.019 11.12-7.019 15.249 0 4.129-1.577 16.342-1.577 16.342S320 551.465 320 557.17c0 5.704-7.89 11.348-12.65 11.348-4.76 0-37.81 27.92-37.81 35.043v41.87c0 6.374-1.616 10.024-4.42 12.046z" fill="#92AC68" p-id="5331"></path><path d="M503.934 264.543c15.166 7.255 27.337 12.632 36.514 16.133-0.71 2.178-1.626 3.809-2.749 4.894-4.586 4.431-17.87 9.504-25.699 9.504-7.83 0-8.113 10.965-14.428 10.965-6.315 0-8.36 27.716-8.36 27.716s-13.898 7.52-23.202 7.52c-9.304 0-22.686 7.795-22.686 11.682v21.797c0 12.145-18 10.332-27.871 17.85-9.87 7.517-16.357 13.346-16.357 18.91 0 5.563-8.19 15.361-18.526 20.26-6.89 3.267-12.292 8.796-16.205 16.586l-12.93 6.205c-12.098 11.915-19.594 21.135-22.487 27.659-4.34 9.786 0-9.786 0-9.786v-17.873l12.357-13.845 10.13-13.845 12.93-6.468 11.579-8.894s4.626-14.14 4.626-18.91c0-3.179 3.446-5.685 10.336-7.517l16.417-10.748v-17.413c0-5.237 6-7.855 18-7.855s14.94-2.598 8.82-7.795v-12.434l-8.82-8.841v-13.961c9.47-7.31 15.47-10.965 18-10.965 3.798 0 13.703-4.513 13.793-4.513 0.091 0 18.198-4.991 23.55-4.991 5.351 0 16.906 0 16.906-4.432 0-2.954 2.105-8.486 6.315-16.595h0.047z" fill="#92AC68" p-id="5332"></path><path d="M470.62 362.608c-7.475 4.535-13.594 7.049-13.594 12.146v9.993c0 6.74-0.09 5.528 0 12.7 0.09 7.171 10.32 14.551 18.288 10.861 7.968-3.69 13.497 0.636 17.877-10.861 2.92-7.665 4.38-15.23 4.38-22.693l-4.38-7.51-9.617-11.017c-3.653 1.231-7.972 3.358-12.954 6.381zM562.204 586.11l-15.728 12.583-9.807 8.459c-2.836 2.615-4.254 5.198-4.254 7.746 0 2.549-1.617 7.018-4.85 13.407l-7.735 8.378-12.763 11.428v5.233l20.498-5.233 18.91-11.428 5.025-8.378v-13.407l10.704-7.746 4.346-8.46-4.346-12.582zM345.945 557.17c-3.093-0.113-4.64 1.659-4.64 5.316 0 5.486-4.017 13.272-4.017 13.272L327.02 586.11v11.01c0 3.514 6.269 12.076 6.269 12.076l8.017 10.53 9.22-14.26v-8.346l18.393-21.362h5.165l-5.165-32.043v-9.333l-10.466 4.48v9.42l3.522 8.888-3.522 11.122v8.762l-7.9-8.762-4.607-11.122zM665.335 440.72c-7.104-2.838-10.656-2.838-10.656 0 0 4.258-9.633 13.845-9.633 13.845v4.536l-11.124 13.337v16.336c7.104-10.89 12.339-16.336 15.706-16.336 5.051 0 10.403-8.755 10.403-8.755l18.712-15.422c8.938 1.19 8.938-1.323 0-7.54-8.939-6.218-13.408-6.218-13.408 0z" fill="#86A05D" p-id="5333"></path><path d="M427.008 224.671a6 6 0 0 1 7.793-1.977c61.87 32.655 101.52 51.366 118.27 55.91 26.16 7.096 36.561 11.982 63.106 29.405 16.849 11.059 57.81 35.11 122.726 72.054a6 6 0 0 1 2.406 7.882c-21.462 43.235-35.218 69.091-41.607 78.11-2.301 3.247-36.994 46.095-49.195 61.836-3.12 4.025-6.108 7.926-8.97 11.714-15.564 20.598-27.068 37.41-33.77 49.824-14.15 26.214-61.61 96.985-142.65 212.759a6 6 0 0 1-8.882 1.062c-18.808-16.566-32.52-28.683-41.142-36.355-2.69-2.394-8.03-5.741-17.288-10.934 1.114 0.625-21.136-11.664-27.837-15.537-21.184-12.243-35.315-22.355-43.739-32.617-12.224-14.891-62.992-46.564-150.952-93.819a6 6 0 0 1-2.152-8.614L427.008 224.67zM186.767 606.545c86.185 46.49 135.343 77.332 148.737 93.648 7.23 8.806 20.485 18.292 40.468 29.841 6.581 3.804 28.728 16.035 27.704 15.46 10.056 5.642 15.817 9.253 19.395 12.436 7.814 6.954 19.836 17.581 36.06 31.879 78.359-112.035 124.469-180.87 138.077-206.08 7.06-13.082 18.85-30.31 34.754-51.358 2.893-3.829 5.911-7.769 9.06-11.832 12.411-16.011 46.851-58.547 48.888-61.422 5.632-7.95 18.441-31.919 38.127-71.432-62.304-35.494-101.737-58.678-118.444-69.644-25.535-16.76-34.795-21.11-59.664-27.856-17.492-4.745-55.93-22.794-115.94-54.355L186.768 606.545z" fill="#5C7139" p-id="5334"></path><path d="M282.202 669.96a6 6 0 1 1 9.996 6.64c-22.405 33.728-38.62 54.78-49.105 63.546-12.014 10.045-26.477 10.045-41.977 0.507a6 6 0 1 1 6.29-10.22c11.368 6.996 20.229 6.996 27.99 0.507 9.292-7.768 25.048-28.225 46.806-60.98zM328.75 703.717a6 6 0 1 1 9.076 7.849c-29.443 34.05-46.086 54.039-49.178 58.984-1.717 2.744-2.33 7.104-1.344 11.353 1.135 4.891 4.172 9.088 9.077 11.885a6 6 0 0 1-5.945 10.424c-15.276-8.712-19.677-27.691-11.962-40.026 3.597-5.751 20.106-25.58 50.275-60.47zM344.762 357.705a6 6 0 1 1-6.915 9.807c-32.201-22.703-50.866-37.57-56.788-45.473-7.522-10.036-4.675-21.166 6.77-31.432a6 6 0 1 1 8.013 8.934c-7.283 6.531-8.42 10.979-5.18 15.301 4.837 6.456 23.136 21.033 54.1 42.863zM635.821 543.578a6 6 0 1 1 7.418-9.432c28.016 22.032 46.602 36.42 55.701 43.12 6.227 4.586 9.674 3.775 13.805-3.455a6 6 0 1 1 10.42 5.953c-7.63 13.354-19.231 16.083-31.34 7.165-9.237-6.802-27.886-21.238-56.004-43.35zM406.652 424.673a4 4 0 1 1 6.678 4.405c-3.394 5.145-2.545 10.196 3.134 16.234 5.621 5.977 13.834 6.938 25.427 2.49a4 4 0 1 1 2.866 7.47c-14.368 5.512-26.004 4.15-34.12-4.479-8.058-8.567-9.582-17.635-3.985-26.12zM474 470.872a4 4 0 0 1 7.361 3.132c-3.887 9.139-2.27 16.12 5.02 22.016 7.483 6.05 18.042 6.778 32.12 1.818a4 4 0 0 1 2.658 7.546c-16.471 5.803-29.888 4.877-39.807-3.144-10.112-8.176-12.618-18.989-7.352-31.368zM394.029 506.396a4 4 0 0 1 7.555 2.632c-3.342 9.596-0.846 16.69 7.918 22.38 8.992 5.839 18.085 5.839 27.97-0.077a4 4 0 1 1 4.108 6.865c-12.457 7.455-24.833 7.455-36.435-0.078-11.83-7.68-15.68-18.62-11.116-31.722z" fill="#5C7139" p-id="5335"></path></svg>