<?xml version="1.0" standalone="no"?><!DOCTYPE svg PUBLIC "-//W3C//DTD SVG 1.1//EN" "http://www.w3.org/Graphics/SVG/1.1/DTD/svg11.dtd"><svg t="1591097556554" class="icon" viewBox="0 0 1024 1024" version="1.1" xmlns="http://www.w3.org/2000/svg" p-id="8596" xmlns:xlink="http://www.w3.org/1999/xlink" width="200" height="200"><defs><style type="text/css"></style></defs><path d="M309.42 851.38l-18.81 77.077h442.766l-41.434-169.814H332.053l-10.861 44.503" fill="#E7402E" p-id="8597"></path><path d="M733.376 943.457H290.61a15.001 15.001 0 0 1-14.572-18.557l18.811-77.077c1.964-8.048 10.08-12.979 18.129-11.016 8.048 1.964 12.98 10.081 11.016 18.128l-14.282 58.521h404.566l-34.114-139.814h-336.33l-8.068 33.06c-1.964 8.048-10.081 12.98-18.129 11.016-8.048-1.964-12.98-10.081-11.016-18.128l10.861-44.503a15 15 0 0 1 14.572-11.444h359.889a15.001 15.001 0 0 1 14.573 11.444l41.434 169.814a15 15 0 0 1-14.574 18.556z" fill="#3D100B" p-id="8598"></path><path d="M237.922 653.078c26.108 25.815 56.597 47.931 90.404 65.387h367.336c99.595-51.425 170.382-143.304 185.203-251.014H143.121c7.677 55.856 30.414 107.455 64.417 151.363" fill="#E7402E" p-id="8599"></path><path d="M695.661 733.465H328.325c-2.395 0-4.754-0.573-6.882-1.672-35.063-18.104-66.712-40.999-94.068-68.048-5.891-5.825-5.944-15.322-0.12-21.213 5.824-5.892 15.322-5.945 21.213-0.12 24.361 24.087 52.453 44.616 83.539 61.053h359.971c89.954-47.579 152.808-129.107 171.154-221.014H160.848c9.066 45.522 29.121 89.178 58.549 127.179 5.072 6.55 3.875 15.971-2.675 21.044-6.55 5.071-15.972 3.874-21.044-2.676-36.295-46.867-59.608-101.678-67.417-158.504a14.998 14.998 0 0 1 14.861-17.042h737.743a14.998 14.998 0 0 1 14.86 17.045c-7.536 54.765-29.547 107.859-63.652 153.542-33.28 44.577-78.07 82.184-129.53 108.754a14.995 14.995 0 0 1-6.882 1.672z" fill="#3D100B" p-id="8600"></path><path d="M728.444 616.534a14.951 14.951 0 0 1-10.45-4.24c-5.942-5.772-6.08-15.269-0.308-21.211 22.407-23.068 40.791-48.9 54.642-76.778 3.686-7.418 12.689-10.444 20.108-6.759 7.419 3.686 10.445 12.688 6.759 20.108-15.234 30.661-35.417 59.035-59.989 84.332a14.962 14.962 0 0 1-10.762 4.548zM660.037 671.039c-5.055 0-9.988-2.554-12.816-7.184-4.318-7.07-2.087-16.302 4.984-20.619a343.137 343.137 0 0 0 20.587-13.614c6.74-4.817 16.109-3.258 20.925 3.483 4.817 6.74 3.257 16.108-3.483 20.925a374.115 374.115 0 0 1-22.394 14.809 14.932 14.932 0 0 1-7.803 2.2z" fill="#FFFFFF" p-id="8601"></path><path d="M79.421 541.997c-9.418 0-17.126 8.164-17.126 18.092 0 9.924 7.707 18.083 17.126 18.083h71.877a329.465 329.465 0 0 1-16.831-36.19H79.426l-0.005 0.015zM944.579 541.997c9.438 0 17.126 8.164 17.126 18.092 0 9.924-7.688 18.083-17.126 18.083h-71.867a327.408 327.408 0 0 0 16.822-36.19h55.046v0.015z" fill="#3D100B" p-id="8602"></path><path d="M900.621 415.469c0 9.543-7.736 17.278-17.278 17.278H140.657c-9.543 0-17.278-7.736-17.278-17.278 0-9.543 7.736-17.278 17.278-17.278h742.685c9.543-0.001 17.279 7.735 17.279 17.278z" fill="#F4DD50" p-id="8603"></path><path d="M396.793 376.098c-3.629 0-7.238-1.51-9.809-4.462-4.709-5.406-4.15-13.602 1.242-18.321 0.577-0.513 30.759-27.719 26.052-60.48-1.767-12.301-6.911-17.782-14.698-26.078-12.309-13.115-27.629-29.437-28.915-74.265-0.95-33.103 29.521-59.97 30.818-61.098 5.419-4.708 13.63-4.133 18.34 1.286 4.709 5.419 4.134 13.63-1.286 18.34-6.235 5.479-22.376 23.524-21.883 40.726 1.004 34.971 11.146 45.777 21.884 57.218 8.692 9.261 18.544 19.757 21.477 40.174 6.759 47.055-32.993 82.286-34.688 83.763a12.96 12.96 0 0 1-8.534 3.197zM609.368 376.098c-3.629 0-7.238-1.51-9.809-4.462-4.709-5.406-4.15-13.602 1.242-18.321 0.577-0.513 30.759-27.719 26.052-60.48-1.767-12.301-6.911-17.782-14.698-26.078-12.309-13.115-27.629-29.437-28.915-74.265-0.95-33.103 29.521-59.97 30.818-61.098 5.42-4.708 13.631-4.133 18.34 1.286 4.709 5.419 4.134 13.63-1.286 18.34-6.235 5.479-22.376 23.524-21.883 40.726 1.004 34.971 11.146 45.777 21.884 57.218 8.692 9.261 18.544 19.757 21.477 40.174 6.759 47.055-32.993 82.286-34.688 83.763a12.96 12.96 0 0 1-8.534 3.197zM499.279 328.435c-3.629 0-7.238-1.51-9.808-4.462-4.708-5.405-4.152-13.597 1.237-18.316 0.378-0.334 30.779-27.613 26.057-60.485-1.767-12.3-6.911-17.781-14.698-26.078-12.309-13.115-27.629-29.437-28.915-74.265-0.95-33.103 29.52-59.971 30.818-61.099 5.419-4.708 13.631-4.133 18.34 1.286 4.709 5.419 4.134 13.63-1.286 18.34-6.235 5.479-22.376 23.524-21.883 40.727 1.004 34.971 11.146 45.777 21.884 57.217 8.692 9.261 18.544 19.757 21.477 40.174 6.759 47.055-32.993 82.287-34.689 83.764a12.96 12.96 0 0 1-8.534 3.197z" fill="#F4DD50" p-id="8604"></path></svg>