<?xml version="1.0" standalone="no"?><!DOCTYPE svg PUBLIC "-//W3C//DTD SVG 1.1//EN" "http://www.w3.org/Graphics/SVG/1.1/DTD/svg11.dtd"><svg t="1591097539173" class="icon" viewBox="0 0 1043 1024" version="1.1" xmlns="http://www.w3.org/2000/svg" p-id="7432" xmlns:xlink="http://www.w3.org/1999/xlink" width="203.7109375" height="200"><defs><style type="text/css"></style></defs><path d="M873.775632 336.863261c74.805661-20.573927 126.382695-71.866529 121.92659-89.02727-2.465079-9.481072-23.797492-18.962145-54.705787-22.28052a18.39328 18.39328 0 0 1-13.178691-28.443218c39.25164-59.825567 55.559084-105.239904 39.441261-121.357726S906.390521 75.849338 846.754575 114.911356a18.962145 18.962145 0 0 1-28.443217-13.463123C814.61374 71.108801 805.322289 50.060821 796.410081 47.40612c-17.160741-4.456104-68.453343 47.405362-89.02727 121.926591v0.474054a9.481072 9.481072 0 0 1-3.697618 5.404211 127.235991 127.235991 0 0 0-30.718675-51.008169c-76.417443-76.417443-242.715453-37.165804-391.947532 85.329651a148.852837 148.852837 0 0 1-106.851686-65.798642 29.675757 29.675757 0 0 1-2.180647-3.507997c-4.550915-4.456104-23.418249 7.205615-42.285583 26.072949s-30.529053 37.92429-26.072949 42.285583l3.507997 2.180647a149.421701 149.421701 0 0 1 65.324589 106.851686c-122.211023 149.232079-161.178231 315.530089-85.329652 391.947532 40.104936 40.104936 104.955471 48.353469 179.192268 29.486135 2.180647 2.180647 4.266483 4.456104 6.44713 6.731562 202.800138 202.800138 455.091475 284.432172 585.171788 194.741227a34.226671 34.226671 0 1 0 55.464273-37.92429 31.287539 31.287539 0 0 0-10.334369-7.015993 212.565643 212.565643 0 0 0 34.605914-101.163043 321.123922 321.123922 0 0 0 0-53.283627v-0.663675a403.988495 403.988495 0 0 0-8.153722-56.222759c0-0.758486 0-1.516972-0.474053-2.275457-2.939132-13.557934-6.636751-27.305488-10.903234-41.242665l-1.137728-3.792429c-1.32735-4.171672-2.749511-8.343344-4.171672-12.609827l-1.706593-4.835347c-3.128754-8.912208-6.447129-17.824416-10.144748-26.831434v-0.853297c-1.516972-3.792429-3.128754-7.584858-4.740536-11.377287s-2.180647-4.930158-3.223565-7.395236l-4.835346-10.713612-4.266483-8.817397c-2.465079-5.119779-4.930158-10.239558-7.584858-15.359338-1.801404-3.697618-3.697618-7.395236-5.688643-10.998044s-3.223565-6.067886-4.930158-9.481072-3.792429-7.015994-5.783454-10.52399l-4.550915-7.86929c58.213784-26.831435 95.758831-68.737775 93.293752-89.785756-1.991025-16.876309-32.046025-40.010125-75.848579-54.042113a9.481072 9.481072 0 0 1 0.948108-18.582901z" fill="#876046" p-id="7433"></path><path d="M657.701992 116.80757h90.923484v90.923485h-90.923484z" fill="#876046" p-id="7434"></path><path d="M782.188472 64.661672m49.301577 0l-0.094811 0q49.301576 0 49.301576 49.301577l0-0.094811q0 49.301576-49.301576 49.301576l0.094811 0q-49.301576 0-49.301577-49.301576l0 0.094811q0-49.301576 49.301577-49.301577Z" fill="#876046" p-id="7435"></path><path d="M874.628928 158.524289m49.301576 0l-0.09481 0q49.301576 0 49.301576 49.301576l0-0.09481q0 49.301576-49.301576 49.301576l0.09481 0q-49.301576 0-49.301576-49.301576l0 0.09481q0-49.301576 49.301576-49.301576Z" fill="#876046" p-id="7436"></path><path d="M831.395238 298.464917m49.301576 0l-0.09481 0q49.301576 0 49.301576 49.301577l0-0.094811q0 49.301576-49.301576 49.301576l0.09481 0q-49.301576 0-49.301576-49.301576l0 0.094811q0-49.301576 49.301576-49.301577Z" fill="#876046" p-id="7437"></path><path d="M825.327352 462.677091m49.301576 0l-0.094811 0q49.301576 0 49.301577 49.301577l0-0.094811q0 49.301576-49.301577 49.301576l0.094811 0q-49.301576 0-49.301576-49.301576l0 0.094811q0-49.301576 49.301576-49.301577Z" fill="#876046" p-id="7438"></path><path d="M827.602809 873.491958h106.0932v106.0932H827.602809z" fill="#876046" p-id="7439"></path><path d="M717.337937 543.455828a11.566908 11.566908 0 0 1 8.248533-20.194684 259.117708 259.117708 0 0 0 53.947302-1.801404c99.456449-13.273501 173.029571-82.864573 169.616385-112.161086-1.991025-16.876309-32.046025-40.010125-75.848579-54.042113a9.481072 9.481072 0 0 1 0.853296-18.962145c74.805661-20.573927 126.382695-71.866529 121.926591-89.02727-2.465079-9.481072-23.797492-18.962145-54.705787-22.28052a18.39328 18.39328 0 0 1-13.178691-28.443217c39.25164-59.825567 55.559084-105.239904 39.441261-121.357726S906.390521 75.849338 846.754575 114.911356a18.962145 18.962145 0 0 1-28.443217-13.463123C814.61374 71.108801 805.322289 50.060821 796.410081 47.40612c-17.160741-4.456104-68.453343 47.405362-89.02727 121.926591v0.474054a9.481072 9.481072 0 0 1-18.962145 0.758486c-14.031987-44.181797-37.165804-74.141986-54.136923-75.848579-29.201703-3.507997-98.887585 70.159936-112.161086 169.521574a266.892188 266.892188 0 0 0-1.516972 54.042113 11.472098 11.472098 0 0 1-20.194684 8.248533c-20.668738-25.314463-42.475204-38.872397-52.809573-35.648833-18.108848 5.688643-37.92429 74.331608-16.591877 145.060408a232.949949 232.949949 0 0 0 8.722586 24.081924 165.539524 165.539524 0 0 1 7.869291 100.120124c-3.033943 14.221609-1.611782 24.93522 4.645725 31.192728s16.781498 7.584858 30.908296 4.645726a166.29801 166.29801 0 0 1 100.120124 7.86929 218.064665 218.064665 0 0 0 24.745599 9.481072c70.633989 20.95317 139.371764 1.516972 144.965597-16.591876 3.128754-10.713612-10.334369-32.520078-35.648832-53.283627z" fill="#B7E233" p-id="7440"></path><path d="M483.534692 595.980969a166.29801 166.29801 0 0 1 100.120124 7.86929 218.064665 218.064665 0 0 0 24.745599 9.481072c70.633989 20.95317 139.371764 1.516972 144.965597-16.591876 3.223565-10.334369-10.239558-32.140835-35.554021-52.904384a11.566908 11.566908 0 0 1 8.248533-20.194684 259.117708 259.117708 0 0 0 53.473248-2.180647c99.456449-13.273501 173.029571-82.864573 169.616385-112.161086-1.991025-16.876309-32.046025-40.010125-75.848579-54.042113a9.481072 9.481072 0 0 1 0.853296-18.962145c74.805661-20.573927 126.382695-71.866529 121.926591-89.02727-2.465079-9.481072-23.797492-18.962145-54.705787-22.28052a18.39328 18.39328 0 0 1-13.178691-28.443217c39.062018-59.541135 55.369463-104.291796 39.630883-121.073294L452.341964 591.524865c6.257508 5.783454 16.686687 7.395236 31.192728 4.456104z" fill="#A5CB2D" p-id="7441"></path><path d="M889.514212 926.585963m-34.321482 0a34.321482 34.321482 0 1 0 68.642964 0 34.321482 34.321482 0 1 0-68.642964 0Z" fill="#803B21" p-id="7442"></path><path d="M291.353355 210.670187a149.800944 149.800944 0 0 1-117.660109-67.031182 29.675757 29.675757 0 0 1-2.180646-3.507997c-4.550915-4.456104-23.418249 7.205615-42.285583 26.072949s-30.529053 37.92429-26.072949 42.285583l3.507996 2.180647a150.274997 150.274997 0 0 1 67.031182 117.660108l0.853297 15.928202 132.735013-132.735013z" fill="#E2C775" p-id="7443"></path><path d="M291.353355 210.670187a149.800944 149.800944 0 0 1-117.660109-67.031182 29.675757 29.675757 0 0 1-2.180646-3.507997c-4.550915-4.456104-23.418249 7.205615-42.285583 26.072949s-30.529053 37.92429-26.072949 42.285583l3.507996 2.180647a150.274997 150.274997 0 0 1 67.031182 117.660108l0.853297 15.928202 132.735013-132.735013zM588.395353 207.731055a976.550456 976.550456 0 0 1 120.409619 102.395581C925.257855 526.67433 1003.28708 799.729215 883.067082 919.66478s-393.369693 42.664826-609.917386-173.882867A969.250031 969.250031 0 0 1 170.659303 625.751536z" fill="#AA7541" p-id="7444"></path><path d="M588.395353 207.731055a976.550456 976.550456 0 0 1 120.409619 102.395581C925.257855 526.67433 1003.28708 799.729215 883.067082 919.66478s-393.369693 42.664826-609.917386-173.882867A969.250031 969.250031 0 0 1 170.659303 625.751536z" fill="#502DB2" opacity=".1" p-id="7445"></path><path d="M938.057302 794.135382c-123.253941 109.221954-377.15706 42.095961-573.984122-154.825912a840.971121 840.971121 0 0 1-94.810724-112.540329l319.132897-319.038086a976.550456 976.550456 0 0 1 120.409619 102.395581c158.333909 158.42872 242.525832 347.00725 229.25233 484.008746z" fill="#FFFFFF" opacity=".1" p-id="7446"></path><path d="M372.800231 300.760916m40.224784-40.224784l0 0q40.224783-40.224783 80.449567 0l260.991803 260.991804q40.224783 40.224783 0 80.449566l0 0q-40.224783 40.224783-80.449567 0l-260.991803-260.991803q-40.224783-40.224783 0-80.449567Z" fill="#FFFFFF" opacity=".3" p-id="7447"></path><path d="M740.751891 668.563458m40.224784-40.224783l0 0q40.224783-40.224783 80.449567 0l0 0q40.224783 40.224783 0 80.449567l0 0q-40.224783 40.224783-80.449567 0l0 0q-40.224783-40.224783 0-80.449567Z" fill="#FFFFFF" opacity=".3" p-id="7448"></path><path d="M266.986999 738.955541c22.470142-71.013232 86.372569-166.961685 177.201243-257.790359S630.870557 326.434081 701.599357 303.963939c18.962145-74.331608 10.713612-139.276953-29.486135-179.4767C586.214706 37.925048 385.310782 99.267586 223.753308 260.82506S1.232539 623.286457 87.510298 709.564216c40.104936 40.104936 105.145093 48.353469 179.476701 29.391325z" fill="#3A0404" p-id="7449"></path><path d="M676.190083 293.914003l27.589921 2.465078a302.256588 302.256588 0 0 0 7.300425-49.301576l-39.536072-3.602808zM606.788633 308.325233l3.602808 39.34645a533.310322 533.310322 0 0 1 47.405361-25.883328L657.038317 312.876147zM545.351284 392.327534c8.438154-6.352319 16.686687-12.420205 24.93522-18.203659l-26.831435-2.465079zM502.496837 412.80665l1.042918 13.842366 14.316419-11.946151zM377.15706 554.927926c3.98205-4.835347 7.964101-9.481072 12.040962-14.31642l-13.463123-1.232539zM334.587045 580.526821l2.465078 26.831435c5.878265-8.248533 11.85134-16.591877 18.29847-24.935221zM439.921759 485.526476l4.266483-4.361294 4.361293-4.266482-9.481073-0.853297zM275.899207 694.015257l8.817397 0.853297a533.02589 533.02589 0 0 1 25.978138-47.405362l-39.34645-3.602807zM205.739271 709.374595l3.602807 38.872397a303.394317 303.394317 0 0 0 49.111955-7.300426L255.988955 713.92551z" fill="#210101" p-id="7450"></path><path d="M681.594294 246.508641l-74.047175-6.826372 6.731561 74.141986 51.671845 4.645725c7.110804-3.223565 14.126798-6.162697 20.858359-8.722587a9.481072 9.481072 0 0 0 0-3.223564zM537.197562 309.557772l6.731561 74.047175 11.661719 1.137729c19.910252-14.695662 39.441261-27.874353 58.308595-39.25164l-2.6547-29.201703zM439.826948 407.023196l6.54194 72.05615c22.470142-22.375331 45.224715-42.949258 67.789668-61.911402v-3.507997zM376.208952 551.325118h3.602808c18.962145-22.659763 39.441261-45.414337 61.721781-67.884478L369.761823 477.277943zM272.011967 574.743367l6.731561 74.047175 29.486135 2.6547c11.282476-18.962145 24.366356-37.92429 38.967208-58.118973l-1.042918-11.851341zM202.231274 644.713681l6.352319 73.857554 60.015188 5.499022a12.799448 12.799448 0 0 0 3.318375 0c2.55989-6.826372 5.499022-13.747555 8.722587-20.858359l-4.740536-51.766656z" fill="#3A0404" p-id="7451"></path><path d="M438.025544 307.282315l9.481073 107.704982 62.290645 5.688643c14.126798-11.85134 28.443217-23.039006 42.001151-33.373374l-6.352318-70.254747zM270.210563 475.002485l9.481073 107.704983 70.254746 6.447129q15.454148-20.858359 33.373375-42.095962l-5.688644-62.290645zM210.290186 652.582971l-107.799793-9.481072 7.679668 84.571165c28.443217 17.539984 65.609021 23.987113 106.946497 20.384306a18.014038 18.014038 0 0 0 0.948107-8.532965zM690.22207 147.241813l-84.476355-7.679669 9.481072 107.704982 87.320677 7.964101a17.634795 17.634795 0 0 0 8.532965-1.137728c3.223565-41.337476-3.223565-78.029226-20.858359-106.851686z" fill="#550000" p-id="7452"></path><path d="M471.872973 316.478955l123.253941 11.187665a24.081924 24.081924 0 0 0 26.16776-26.167759l-11.187666-123.253942-151.697158-13.842365zM632.861582 98.129858l4.835347 52.525141 56.886434 5.21459a120.314809 120.314809 0 0 0-62.195835-57.739731zM61.53216 670.976252a124.676102 124.676102 0 0 0 25.978138 38.587964 120.883673 120.883673 0 0 0 30.244621 21.901277l-5.119779-55.843516zM444.188242 344.068876l-151.697159-13.842366 13.842366 151.697158 123.253941 11.187666h3.033943c3.98205-4.076861 7.86929-8.153722 11.946151-12.230584L455.091475 470.261949v-3.033943zM140.319871 648.032056l123.253941 11.187666a23.987113 23.987113 0 0 0 26.16776-26.16776l-11.187665-123.253941-151.697158-13.842366z" fill="#6A1D10" p-id="7453"></path><path d="M223.753308 260.82506C110.549304 374.029064 46.741687 506.669267 48.44828 605.556852L568.864343 85.33041c-99.266828-1.516972-231.81222 62.195835-345.111035 175.49465z" fill="#955831" p-id="7454"></path><path d="M290.310437 526.863951A29.201703 29.201703 0 0 0 322.356461 495.007548l-13.842365-149.516512L161.178231 331.838292a721.016593 721.016593 0 0 0-32.520079 45.414337l12.420205 135.768957zM458.030607 359.143781a29.391324 29.391324 0 0 0 31.856403-31.856404l-13.652744-149.516511-135.768956-12.325394q-22.944195 14.695662-45.414337 32.425267l13.463123 147.620297z" fill="#803B21" p-id="7455"></path><path d="M625.750778 191.42361a29.391324 29.391324 0 0 0 31.856403-31.856403l-4.645725-50.818548c-45.129905-29.391324-110.833736-30.244621-183.648373-6.731562l6.921183 75.84858zM154.351859 662.822529l-13.557934-149.611322-75.848579-6.826372c-23.60787 72.719825-22.754574 138.423657 6.731561 183.553561l50.818548 4.645726a29.201703 29.201703 0 0 0 31.856404-31.761593z" fill="#803B21" p-id="7456"></path><path d="M366.538259 403.515199C250.015879 520.037579 182.321022 653.436268 182.795076 748.05737a280.070878 280.070878 0 0 0 83.90749-9.481072c22.470142-71.108043 86.46738-167.056496 177.201243-257.790359S630.680935 326.244459 701.599357 303.395075a277.6058 277.6058 0 0 0 9.481072-84.002301c-94.810724-0.094811-228.114602 67.600046-344.54217 184.122425z" fill="#3A0404" opacity=".3" p-id="7457"></path><path d="M366.538259 403.515199C250.015879 520.037579 182.321022 653.436268 182.795076 748.05737a280.070878 280.070878 0 0 0 83.90749-9.481072c22.470142-71.108043 86.46738-167.056496 177.201243-257.790359S630.680935 326.244459 701.599357 303.395075a277.6058 277.6058 0 0 0 9.481072-84.002301c-94.810724-0.094811-228.114602 67.600046-344.54217 184.122425z" fill="#502DB2" opacity=".1" p-id="7458"></path><path d="M728.335981 1023.956577c-146.482568 0-328.234726-89.02727-476.992752-233.13957-82.011276 14.790473-151.697158-2.275457-197.395927-47.405362-91.871591-92.250834-64.471292-267.17662 67.600046-438.025545a99.266828 99.266828 0 0 0-40.673801-54.99022l-4.266482-2.465078a29.770567 29.770567 0 0 1-4.835347-3.697619l-2.180647-2.275457c-18.962145-18.962145-29.865378-53.283627 26.072949-109.221954 27.49511-27.589921 51.387412-40.958233 73.004258-40.958233a50.913359 50.913359 0 0 1 36.312507 14.885284l2.180647 2.085836a26.16776 26.16776 0 0 1 3.697618 4.835347l2.465079 4.171672a99.172017 99.172017 0 0 0 55.08503 40.768611c11.661719-8.912208 23.51306-17.539984 35.459211-25.693706a23.702681 23.702681 0 0 1 26.736624 39.156829c-14.126798 9.481072-28.443217 20.005063-41.90634 30.908296a23.51306 23.51306 0 0 1-19.436198 4.645725 147.241054 147.241054 0 0 1-95.664021-63.902428c-0.758486-1.137729-1.422161-2.370268-2.085835-3.413186a4.266483 4.266483 0 0 0-2.844322-0.948107c-4.645725 0-18.108848 5.688643-39.441261 27.021056-24.93522 24.84041-29.201703 39.062018-26.072949 42.285583l3.413186 2.085836A147.904729 147.904729 0 0 1 170.659303 306.239397a23.60787 23.60787 0 0 1-4.740536 19.436198C45.224715 477.183132 12.989069 635.232609 87.510298 709.564216c36.122886 36.028075 95.66402 47.405362 166.582442 32.425268a23.418249 23.418249 0 0 1 21.616845 6.352318C417.167185 889.135727 590.955242 976.551215 728.335981 976.551215a237.02681 237.02681 0 0 0 113.772869-25.788517 23.60787 23.60787 0 0 1 26.26257 2.465079 35.079968 35.079968 0 0 0 45.888391-2.370268 34.226671 34.226671 0 0 0 2.370268-45.983202 23.797492 23.797492 0 0 1-2.55989-26.26257 221.857094 221.857094 0 0 0 24.461167-84.476355 317.615925 317.615925 0 0 0 0-52.999195v-1.042918a407.686113 407.686113 0 0 0-8.153722-56.222759l-0.474054-2.180647c-2.939132-13.463123-6.636751-27.400299-10.903233-41.337475l-1.23254-3.792429c-1.232539-4.076861-2.6547-8.248533-4.076861-12.515016l-1.706593-4.835347c-3.318375-9.481072-6.636751-18.203659-10.049936-26.831435l-0.474054-1.137728c-1.422161-3.507997-3.033943-7.300426-4.645726-11.092855-1.137729-2.370268-2.180647-4.930158-3.223564-7.300426l-4.835347-10.808422c-1.32735-2.749511-2.55989-5.404211-4.266483-8.817398-2.465079-5.119779-4.930158-10.239558-7.584858-15.359337q-2.6547-5.499022-5.688643-11.092854l-3.413186-6.352319a23.702681 23.702681 0 0 1 9.481072-31.856403c49.77563-28.443217 74.426418-62.006213 72.435393-78.882523-1.516972-12.894258-17.919227-28.443217-43.992176-41.242664a23.702681 23.702681 0 0 1 1.23254-43.044069c59.446324-25.504085 93.388563-63.617996 89.785755-77.744794-1.896214-7.205615-17.255552-16.591877-47.405362-21.142791a23.702681 23.702681 0 0 1-16.402255-36.217697C969.724084 132.735772 982.523532 90.450189 967.733059 75.849338a24.461167 24.461167 0 0 0-18.014038-6.067887c-14.600851 0-43.044069 7.110804-96.232884 41.053044A23.702681 23.702681 0 0 1 817.26844 94.811482c-4.550915-30.14981-13.937176-45.224715-20.858359-47.405362a8.343344 8.343344 0 0 0-2.275458 0c-13.937176 0-47.405362 29.391324-72.15096 82.48533a23.702681 23.702681 0 0 1-40.104937 4.835347 116.996433 116.996433 0 0 0-9.481072-10.239558c-35.933264-35.933264-95.474399-47.405362-165.255092-32.80451a23.702681 23.702681 0 1 1-9.481072-46.362444C576.733634 28.443976 646.703948 41.053802 694.298931 80.305442 719.139341 38.683534 755.451848 0.000758 793.850191 0.000758a54.705788 54.705788 0 0 1 14.221609 1.801404C824.094812 5.973834 843.815443 18.962903 856.046026 53.758439c37.92429-21.237602 68.737775-31.571971 93.672995-31.571971a70.823611 70.823611 0 0 1 51.577034 20.005063c37.92429 37.92429 16.117823 96.232885-11.661719 145.43965 35.3644 12.135773 48.163848 31.951214 52.43033 48.069037 10.713612 41.242665-28.443217 84.002301-78.882522 113.772869a85.329652 85.329652 0 0 1 33.088943 54.516166c4.930158 42.380394-33.468186 84.381544-76.512254 113.772869q3.792429 7.490047 7.395236 15.074905c1.801404 3.697618 3.128754 6.636751 4.456104 9.481072l5.21459 11.472098 3.413186 7.86929c1.801404 4.171672 3.507997 8.153722 5.119779 12.230583l0.474054 1.23254c3.697618 9.481072 7.205615 18.39328 10.808422 28.443217l1.706593 5.119779c1.706593 4.740536 3.223565 9.481072 4.645726 13.842366l1.232539 3.98205c4.645725 15.169716 8.627776 30.339432 11.851341 45.129905l0.568864 2.275457a463.055576 463.055576 0 0 1 9.481072 62.85951v1.137729a361.134047 361.134047 0 0 1-0.568864 60.868484 278.364285 278.364285 0 0 1-23.51306 89.596135 81.726844 81.726844 0 0 1-110.644114 110.454493A289.45714 289.45714 0 0 1 728.335981 1023.956577z" fill="#876046" p-id="7459"></path><path d="M401.428605 127.331561a23.702681 23.702681 0 0 1-10.144747-45.129905l5.688643-2.6547A23.702681 23.702681 0 1 1 417.167185 122.591024l-5.404211 2.465079a23.51306 23.51306 0 0 1-10.334369 2.275458z" fill="#876046" p-id="7460"></path></svg>