<?xml version="1.0" standalone="no"?><!DOCTYPE svg PUBLIC "-//W3C//DTD SVG 1.1//EN" "http://www.w3.org/Graphics/SVG/1.1/DTD/svg11.dtd"><svg t="1591097451741" class="icon" viewBox="0 0 1024 1024" version="1.1" xmlns="http://www.w3.org/2000/svg" p-id="3732" xmlns:xlink="http://www.w3.org/1999/xlink" width="200" height="200"><defs><style type="text/css"></style></defs><path d="M743 778.2l-381.5 67.3c-70.2 12.4-137.2-34.5-149.6-104.8l-67.3-381.5C132.2 289 179.1 222 249.4 209.6l381.5-67.3c70.2-12.4 137.2 34.5 149.6 104.8l67.3 381.5c12.4 70.2-34.5 137.2-104.8 149.6z" fill="#D37B39" p-id="3733"></path><path d="M897.8 706.9c-10.6-9.4-35 14.6-35 14.6l-25.9-14.1c11.5-23.6 15.9-50.9 11-78.8l-11.8-67c19.4-7.2 31.6-15.5 42.3-30.8 16.5-23.7 2.6-46.6-15.2-30-12 11.2-24.8 17.5-34.2 21L780.5 247c-9.5-53.8-51-93.9-101.5-104.2 21.1 18.7 36.2 44.3 41.5 74.2l67.3 381.5c12.4 70.2-34.5 137.2-104.8 149.6l-381.5 67.3c-10.7 1.9-21.2 2.4-31.6 1.7l-2.1-1.3s-0.2 0.4-0.6 1.1c-4.7-0.4-9.3-1.1-13.9-2 3.4 3 6.9 5.8 10.5 8.4-7.4 14.3-22.5 45.2-21.8 54.4 1.1 12.8 41.7 37.4 52.5 27 10.2-9.8-11.9-36-11.9-36l16.9-27.4c19.3 6.2 40.4 7.9 61.8 4.2L743 778.2c28.4-5 53-18.9 71.3-38.4 15 7 51 23.1 60.4 21.5 12.8-2.1 34.3-44.4 23.1-54.4z" fill="#C05E2D" p-id="3734"></path><path d="M721.5 159.8c-24.3-9.7-49.7-13.2-76.2-7.4l-344.7 77.2c-70.7 9.3-120.5 66.7-111.1 137.4l50.7 384c3.3 24.9 13.5 47.3 28.4 65.3-1.1 2.5-2.4 5.2-3.5 7.8-27.2-18.9-47.1-48.3-53.3-83.5l-11.4-64.5c-19.9 1.7-36.4-0.7-54.4-12.4-24.2-15.7-22.8-40.7 0.4-33.7 19.6 5.9 37 5.4 46.6 4.4L144.4 359c-12.4-70.2 34.5-137.2 104.8-149.6l381.5-67.3c32.8-5.6 64.7 1.5 90.8 17.7z" fill="#F9A356" p-id="3735"></path><path d="M492.1 351.6c-39.4-15-67-49.9-86.2-88.3-4.6 22.6-4 43.9 0.9 69.1-61.7-42.5-79.6-107.3-73.5-145 7-42.9 31-70.2 77.9-80 56-11.7 108.4 24.4 112 86.7 2.6 46.1-14.8 55.8 8.8 116-24.8-7.6-39.4-20.2-61-44 2.2 29.3 9.2 57.6 21.1 85.5z" fill="#F9A356" p-id="3736"></path><path d="M358.3 187.4c7-42.9 31-70.2 77.9-80 2.8-0.6 5.6-1 8.4-1.4-10.7-1.4-22-1-33.4 1.4-46.8 9.8-70.9 37.1-77.9 80-6.1 37.7 11.8 102.5 73.5 145-1.6-8.4-2.1-5.2-2.7-12.9-38.8-40.3-50.9-101-45.8-132.1z" fill="#FFC08D" p-id="3737"></path><path d="M452.8 305.5c-14.7-16.7-30.4-63.1-47.9-45.9 16.8 22.9 32.6 67.8 87.2 92-2.6-6.1-26.6-31.7-39.3-46.1zM491.4 269.2c-10.8-13.9-22.2-12.7-21.5-7.8 0.6 4.3 19.5 22.7 29.6 32.3 8.8 8.3 19.7 12.5 32.4 16.4-1.2-2.3-2.5-3.3-2.4-4.4-13.7-6.5-17.1-9.6-38.1-36.5z" fill="#FFC08D" p-id="3738"></path><path d="M490.2 175.3c9 48.1-11.1 62.3 20.6 122.2-2.9-0.5-5.7-1.1-8.4-1.8 8.8 6.3 18.1 10.8 29.6 14.4-23.6-60.2-6.1-70-8.8-116-2.9-51.2-38.8-84.7-82.6-88.5 24.2 12.7 43.3 36.5 49.6 69.7zM387.9 289.6c3 16.7 10 36.7 18.9 42.8-2.4-12.2-1.4-61.3-1.7-72.3-3.4-3.9-7.5-9.2-13.2-6.3-8.3 4.3-6.7 20.9-4 35.8zM450.3 281.8c6.2 22.7 16.6 42.7 32.6 62.1 5.4 3.1 3.3 5.5 9.2 7.7-9.6-22.6-17.7-60.8-21-84.2-4.6-3-7.1-10.2-15.6-7.6-8.2 2.5-6.9 15.7-5.2 22z" fill="#C05E2D" p-id="3739"></path><path d="M588 597.5l-10.9 27.6-24.8-16.8" fill="#FFFFFF" p-id="3740"></path><path d="M595 555.5c-2.5-1.3-5.5-0.3-6.7 2.2-1.3 2.5-0.3 5.5 2.2 6.7 7.5 3.8 18.8 11.9 18.9 17 0 1.9-2.4 3.7-4.4 4.8-3.3 1.8-9.5 4-17.8 6.4-0.4 0.1-0.7 0.2-1.1 0.3-39.6 11.1-122.4 25.6-149.8 25.6-2.4 0-4.4-0.1-5.9-0.3-2.3-0.4-5.2-1.2-5.8-3-1.7-4.9 5.9-16.3 11.6-22.5 1.9-2 1.7-5.2-0.3-7.1s-5.2-1.7-7.1 0.3c-3 3.3-17.9 20.3-13.7 32.5 1.3 3.6 4.6 8.2 13.7 9.6 1.8 0.3 4.2 0.4 7.1 0.4 21.8 0 71.7-7.7 113.1-16.4 0.2 0.2 0.3 0.3 0.5 0.4l24.8 16.8c0.8 0.6 1.8 0.9 2.8 0.9 0.5 0 1-0.1 1.5-0.2 1.5-0.4 2.6-1.5 3.2-2.9l10-25.3c8.2-2.4 14.5-4.7 18.1-6.7 8-4.5 9.6-9.9 9.5-13.7-0.3-13-20.4-23.8-24.4-25.8z m-20.2 61.9l-12.4-8.4c6.1-1.4 11.9-2.8 17.3-4.2l-4.9 12.6z" p-id="3741"></path><path d="M366.2 479.8m-39.1 0a39.1 39.1 0 1 0 78.2 0 39.1 39.1 0 1 0-78.2 0Z" fill="#FFFFFF" p-id="3742"></path><path d="M611.2 436.8m-39.1 0a39.1 39.1 0 1 0 78.2 0 39.1 39.1 0 1 0-78.2 0Z" fill="#FFFFFF" p-id="3743"></path><path d="M372.2 441.2c9.8 7.1 16.1 18.6 16.1 31.6 0 21.6-17.5 39.1-39.1 39.1-2 0-4-0.2-5.9-0.4 6.4 4.7 14.4 7.4 22.9 7.4 21.6 0 39.1-17.5 39.1-39.1 0-19.5-14.4-35.7-33.1-38.6zM617.1 398.2c9.8 7.1 16.1 18.6 16.1 31.6 0 21.6-17.5 39.1-39.1 39.1-2 0-4-0.2-5.9-0.4 6.4 4.7 14.4 7.4 22.9 7.4 21.6 0 39.1-17.5 39.1-39.1 0.1-19.6-14.3-35.8-33.1-38.6z" fill="#E3DCCA" p-id="3744"></path><path d="M366.2 523.9c-24.3 0-44.1-19.8-44.1-44.1s19.8-44.1 44.1-44.1 44.1 19.8 44.1 44.1-19.8 44.1-44.1 44.1z m0-78.1c-18.8 0-34.1 15.3-34.1 34.1s15.3 34.1 34.1 34.1 34.1-15.3 34.1-34.1c0-18.9-15.3-34.1-34.1-34.1zM611.2 480.8c-24.3 0-44.1-19.8-44.1-44.1s19.8-44.1 44.1-44.1 44.1 19.8 44.1 44.1-19.8 44.1-44.1 44.1z m0-78.1c-18.8 0-34.1 15.3-34.1 34.1s15.3 34.1 34.1 34.1 34.1-15.3 34.1-34.1-15.3-34.1-34.1-34.1z" p-id="3745"></path><path d="M353.871414 481.981196a12.5 12.5 0 1 0 24.622463-4.328313 12.5 12.5 0 1 0-24.622463 4.328313Z" p-id="3746"></path><path d="M598.881794 438.978197a12.5 12.5 0 1 0 24.622463-4.328312 12.5 12.5 0 1 0-24.622463 4.328312Z" p-id="3747"></path><path d="M641.9 499.3c-1.5-7.5 8.5-16 22.4-19 13.9-3 26.4 0.7 27.9 8.2 1.5 7.5-8.5 16-22.4 19-13.9 2.9-26.4-0.7-27.9-8.2zM314.6 557.3c-1.1-7.6 9.4-15.3 23.5-17.2 14.1-1.9 26.4 2.7 27.5 10.2s-9.4 15.3-23.5 17.2c-14 1.9-26.4-2.6-27.5-10.2z" fill="#FF404E" p-id="3748"></path><path d="M901.1 703.2c-11.6-10.4-31.2 5-39.2 12.2l-18.7-10.2c10.4-23.5 14.2-50.3 9.4-77.5l-11.1-62.9c19.1-7.7 30.6-16.6 40.8-31.1 11.8-16.8 9.8-33.2 1.9-40-5.2-4.5-14.4-6-24.6 3.4-9.2 8.5-18.8 14.1-26.9 17.7l-47.4-268.6c-12.8-72.8-82.6-121.6-155.4-108.8l-110.5 19.5c-6.4-14.7-16.2-27.4-28.8-37.1-22.2-17-51.5-23.2-80.6-17.2-47.5 9.9-74.2 37.4-81.8 84.1-0.2 1.3-0.4 2.7-0.5 4l-79.3 14c-35.3 6.2-66 25.8-86.6 55.2s-28.4 64.9-22.2 100.2L187.3 630c-9.5 0.5-23.7 0.1-39.3-4.6-16.2-4.9-21.7 3.9-23 6.7-4.9 10.5 3.1 25.9 18.5 35.9 15.9 10.3 30.7 13.7 46.4 13.7 2.2 0 4.3-0.1 6.5-0.2l10.6 60.1c5.9 33.4 23.8 62.7 50.5 83.2-8.3 16.3-21.2 43.6-20.3 53.3 1 11.8 21.8 25.9 35.7 31.1 5.3 2 10.1 3 14.2 3 4.6 0 8.4-1.3 11.1-3.9 11.3-10.8-2.7-31.6-9.2-40l13-21.1c11.9 3.5 24.3 5.2 36.9 5.2 7.8 0 15.7-0.7 23.6-2.1L744 783c28.2-5 52.7-18.4 71.5-37.3 16.5 7.6 46.4 20.6 58.3 20.6 0.7 0 1.3 0 1.9-0.1 11.7-1.9 24.1-23.7 28.3-38 3.3-11.7 2.4-20.3-2.9-25z m-562.9-515c6.9-42.7 30.4-66.8 73.9-75.9 26.2-5.5 52.6 0.1 72.5 15.3 20 15.4 31.9 39.1 33.5 66.8 0.9 15.3-0.5 26.4-1.9 37.1-2.4 19.4-4.6 36.4 7.2 70.3-18.2-7.6-31.1-19.4-48.9-39-1.4-1.6-3.7-2.1-5.7-1.2-2 0.8-3.2 2.8-3 5 2 25.5 7.7 50.8 17 75.5-28.5-14.5-52.8-41.6-72.5-81-0.9-1.7-2.6-2.8-4.5-2.8-0.2 0-0.4 0-0.7 0.1-2.1 0.3-3.8 1.9-4.2 3.9-3.9 18.8-4.3 37.3-1.2 58.7-22.3-17.7-39.7-39.9-50.6-64.9-10.1-23.3-14.1-48.1-10.9-67.9z m556.1 537.3c-4.6 15.7-15.7 30.2-20.3 30.9-5.5 0.9-28.5-7.9-51.4-18.3-3.2-1.4-6.3-2.9-9.4-4.4-1.1-0.5-2.1-1-3.2-1.5-2.5-1.2-5.5-0.1-6.7 2.3-1.2 2.5-0.2 5.5 2.3 6.7 0.1 0 0.1 0.1 0.2 0.1-17 16.1-38.8 27.6-63.6 32l-381.5 67.3c-18 3.2-36.2 2.4-53.3-2.2 0.8-2.2 0-4.7-2.1-6-2.3-1.4-5.4-0.7-6.9 1.6l-0.8 1.3-5.4 8.7-13.6 22c-1.1 1.8-1 4.2 0.4 5.9 7.8 9.3 16.6 25 12.2 29.2-1.5 1.4-6.2 1.9-14.8-1.3-15.3-5.8-28.9-18-29.3-22.6-0.5-5.9 9.2-27.8 18.6-46.6 1.6-3.1 3.1-6.1 4.6-9 0.6-1.2 1.2-2.3 1.8-3.5 1.3-2.4 0.4-5.5-2-6.8-2.4-1.3-5.5-0.4-6.8 2-0.3 0.6-0.7 1.4-1.2 2.3-24-18.9-40-45.6-45.3-75.9l-10.5-59.2c0.9-0.1 1.8-0.2 2.6-0.3 2.7-0.3 4.7-2.9 4.3-5.6s-2.9-4.7-5.6-4.3c-21.8 2.8-39.2 1.9-58.8-10.8-12.9-8.3-16.9-18.9-14.8-23.3 1.8-3.8 8.9-2 11.1-1.4 30.6 9.2 55.8 3.5 56.9 3.3 2.7-0.6 4.4-3.3 3.7-6s-3.3-4.4-6-3.7c0 0-0.9 0.2-2.5 0.5l-47.7-270.6c-5.8-32.7 1.5-65.6 20.6-92.8 19-27.2 47.5-45.3 80.1-51.1l76.9-13.6c-0.2 18.6 4.2 39.4 12.9 59.2 13.2 30.3 35.3 56.7 63.9 76.4 1.7 1.1 3.9 1.2 5.6 0.1 1.7-1.1 2.6-3.1 2.2-5.1-3.8-19.6-4.8-36.3-3.2-52.6 22.2 39.1 49.7 65.1 81.8 77.3 0.6 0.2 1.2 0.3 1.8 0.3 1.3 0 2.6-0.5 3.6-1.5 1.4-1.4 1.8-3.6 1-5.4-9.7-22.8-16.1-45.6-19.2-69.1 17 17.5 31.2 27.7 53 34.4 1.8 0.6 3.8 0 5.1-1.4 1.3-1.4 1.7-3.4 1-5.2-15-38.4-12.9-55.6-10.4-75.6 1.3-10.6 2.9-22.7 1.9-38.9-0.5-9.7-2.2-18.9-5-27.5L631.8 147c32.6-5.8 65.6 1.5 92.8 20.6 27.2 19 45.3 47.5 51 80.1l47.7 270.5c-5.4 1.8-8.9 2.3-9 2.3-2.7 0.4-4.6 3-4.2 5.7 0.4 2.7 3 4.6 5.7 4.2 0.4-0.1 3.9-0.6 9.2-2.3 2.7-0.8 6-2 9.5-3.5 9.3-3.9 20.9-10.3 31.9-20.5 1.7-1.6 7.5-6.4 11.2-3.2 3.9 3.4 4.9 14.6-3.5 26.7-8.7 12.4-18.3 20.1-34.4 26.8-2.9 1.2-6.1 2.4-9.5 3.6-0.4 0.1-0.8 0.3-1.2 0.4-2.6 0.9-4 3.7-3.1 6.4 0.7 2.1 2.6 3.4 4.7 3.4 0.4 0 0.9-0.1 1.4-0.2l10.8 61.1c4.4 25 1 49.5-8.5 71.2-2.1-0.4-4.2 0.6-5.3 2.5-1.1 2.1-0.6 4.6 1.1 6.1 0.3 0.3 0.6 0.5 0.9 0.7l7.8 4.2 21.5 11.7c1.9 1 4.3 0.7 5.9-0.8 8.6-8.5 23.7-18.5 28.2-14.4 1.6 1.7 2.5 6.4-0.1 15.2z" p-id="3749"></path><path d="M218.8 387c-3.6 0-6.7-2.6-7.4-6.2l-2.6-14.7c-9.2-52.2 25.8-102.1 77.9-111.3l5.5-1c4.1-0.7 8 2 8.7 6.1 0.7 4.1-2 8-6.1 8.7l-5.5 1c-21.3 3.8-39.9 15.6-52.3 33.3s-17.2 39.2-13.4 60.6l2.6 14.7c0.7 4.1-2 8-6.1 8.7-0.4 0.1-0.8 0.1-1.3 0.1zM224.7 420.4c-3.6 0-6.7-2.6-7.4-6.2l-0.8-4.3c-0.7-4.1 2-8 6.1-8.7 4.1-0.7 8 2 8.7 6.1l0.8 4.3c0.7 4.1-2 8-6.1 8.7-0.4 0-0.9 0.1-1.3 0.1z" fill="#FFFFFF" p-id="3750"></path></svg>