<?xml version="1.0" standalone="no"?><!DOCTYPE svg PUBLIC "-//W3C//DTD SVG 1.1//EN" "http://www.w3.org/Graphics/SVG/1.1/DTD/svg11.dtd"><svg t="1591097472119" class="icon" viewBox="0 0 1024 1024" version="1.1" xmlns="http://www.w3.org/2000/svg" p-id="4094" xmlns:xlink="http://www.w3.org/1999/xlink" width="200" height="200"><defs><style type="text/css"></style></defs><path d="M946.1 692.4c-10.6 39.4-44.1 42.8-51.1 75.8-16.3 76-89.3 128.4-157.4 146.6-68.1 18.2-195 47.2-238.8 40.1-34.2-5.5 133.8-52.3 90.5-60.4-150.6 31.4-263.1-8.4-324.1-43.8 8.6 0.3 17.3-0.3 26.3-1.7 68.1-15.7 119-40.9 155-79.3 24.3 0.5 47.1 2.2 66.3 5.6 22.6 4 99 42.8 103.7 19.8 5.6-27.6-72.7-138.1-72.7-271.3 0-104 14.2-179.6 54.7-231.9 90.1-0.9 206.4-26.7 246.5-49 68.9 56.1 113 176.5 113 304.2 0 45.2-1.3 106-11.9 145.3zM510.5 245.8c-22.6-4-99-42.8-103.7-19.8-5.6 27.6 72.7 138.2 72.7 271.4 0 183.4-44 278.5-198.7 313.1C156 825.6 65.3 657.5 65.3 474.1c0-45.2 1.3-106.1 11.9-145.3 10.6-39.4 44-42.8 51.1-75.8 16.3-76.1 89.3-128.5 157.4-146.7C353.7 88 480.6 59 524.4 66.1c34.2 5.5-133.8 52.3-90.4 60.5 218.7-45.7 357.1 59.2 374 82 19.1 25.9-192.9 55.6-297.5 37.2z" fill="#F39142" p-id="4095"></path><path d="M920 679.7c-9.5 35.3-48.4 48.2-54.7 77.8-14.6 68-53.6 132.3-114.4 148.6-60.9 16.3-140.8 37.9-180 31.6-30.6-4.9 60-44.8 30-50.4-120.4 25.1-214.7-24.8-254.3-54.4 28-10.3 52.1-23.1 72.8-38.7 7.5-0.3 15.1-0.5 22.7-0.5 5.6 0 45.4 31.2 51.1 31.4 5.6 0.1-23-30.9-17.5-30.6 16.1 0.8 31.4 2.4 44.7 4.7 2.2 0.4 36.5 36.2 41.2 37.6 4.3 1.2-21.2-32.1-15.6-30.4 4.3 1.3 9 2.6 13.8 3.8 4.1 1.1 37.9 33.4 42.2 34.4 3.8 0.9-21.9-29.6-18.2-28.9 6 1.1 11.9 2 17.5 2.4 5.3 0.4 46 35.3 50.5 34.9 4.3-0.4-27.6-36.2-24.4-37.6 4.7-2.1 8-5.4 9.5-10.1 1.1-3.5 82.8 43.7 79.2 32.6-3.1-9.4-80.4-43.8-96.3-89.8-1.9-5.4-4.1-11-6.3-16.8-1.8-4.9 54.1 55 52.2 49.8-1.9-5.2-61.6-75.5-63.5-81-18.4-52.2-37.1-116.1-37.1-174.5v-9.9c0.1-7.3 50.5-6 50.7-13 0.2-6.8-49.7-22-49.3-28.5 0.5-8.4 1.2-16.6 2.1-24.6 0.8-7 149.9 95 150.9 88.4 1.1-7-146-122.6-144.6-129.1 2.3-11 5-21.3 8.2-31.2 1.4-4.2 59.7 42.7 61.3 38.6 1.8-4.6-53.2-60.1-51.1-64.4 4.5-9.6 9.7-18.6 15.5-27 3.2-4.6 85.5 86.5 89.1 82.3 3.9-4.5-70.8-104.4-66.5-108.5 3.2-3 6.5-5.9 10-8.7 60.3-4.9 124.8-18.1 167.9-32.3 75.8 39 126.1 159.6 126.1 288.6-0.1 40.4-6 98.3-15.4 133.4zM581.3 227.4c-5.6 0-45.4-31.3-51-31.4-5.6-0.1 23 30.9 17.5 30.6-16.1-0.8-31.4-2.4-44.7-4.7-2.2-0.4-36.4-36.3-41.1-37.6-4.3-1.2 21.2 32.1 15.6 30.4-4.3-1.3-9-2.6-13.8-3.8-4.1-1.1-37.9-33.4-42.1-34.4-3.8-0.9 21.9 29.6 18.2 28.9-6-1.1-11.9-2-17.5-2.4-5.2-0.4-46-35.3-50.5-34.9-4.3 0.4 27.6 36.2 24.4 37.6-4.7 2.1-8 5.4-9.5 10.1-1.1 3.5-82.8-43.7-79.1-32.6 3.1 9.4 80.4 43.9 96.3 89.9 1.9 5.4 4.1 11 6.3 16.9 1.8 4.9-54.1-55.1-52.2-49.9 1.9 5.2 61.6 75.6 63.5 81.1 18.4 52.2 37 116.2 37.1 174.6v9.9c-0.1 7.4-50.5 6-50.7 13-0.2 6.8 49.7 22 49.3 28.5-0.5 8.5-1.2 16.7-2.1 24.6-0.8 7-149.9-95.1-150.9-88.4-1.1 7 146 122.7 144.6 129.2-2.3 11-5 21.3-8.2 31.2-1.4 4.2-59.7-42.7-61.3-38.7-1.8 4.6 53.2 60.1 51.1 64.5-4.5 9.6-9.7 18.6-15.5 27-3.2 4.6-85.4-86.6-89.1-82.3-3.9 4.5 70.8 104.4 66.4 108.5-26.7 25-62.9 42.4-111.2 53.2C169.2 789.5 88.1 639 88 474.9c0-40.4 5.9-98.3 15.3-133.5 9.5-35.3 48.4-48.3 54.7-77.8 14.6-68.1 53.6-132.4 114.4-148.7 60.9-16.3 140.8-38 179.9-31.7 30.6 4.9-60 44.8-30 50.5 151.7-31.6 262 55.9 273.7 71.7 9.2 12.4-52.1 21.7-114.7 22zM189 356c-28.2 0-51 22.8-51 51s22.8 51 51 51 51-22.8 51-51-22.8-51-51-51z m89 51c0 28.2 22.8 51 51 51s51-22.8 51-51-22.8-51-51-51-51 22.8-51 51z m81 0c0 16.6-13.4 30-30 30s-30-13.4-30-30 13.4-30 30-30 30 13.4 30 30z m-170 30c-16.6 0-30-13.4-30-30s13.4-30 30-30 30 13.4 30 30-13.4 30-30 30z" fill="#F3B442" p-id="4096"></path><path d="M920 679.7c-5.2 19.2-19.1 31.8-31.7 44-45.6-58.9 58.5 7.1 25.7-239.8-25.2-119.8-32.9-159.7-104.8-226.3 10.4 5.4 20.4 12.3 29.7 20.5 58.9 51.8 96.3 156.8 96.3 268.1 0.1 40.5-5.8 98.4-15.2 133.5z m-74.5-194c11.9 21.6 16.6 61.7 1.1 119.4-15.4 57.6-73.7 105.5-73.7 97.2 0-32.1 29.3-47.4 44.7-105 15.5-57.6 15.3-134.5 27.9-111.6z m-274.7 452c-30.6-4.9 60-44.8 30-50.4-120.4 25.1-214.7-24.8-254.3-54.4 28-10.3 52.1-23.1 72.8-38.7 7.5-0.3 15.1-0.5 22.7-0.5 1.9 0-53.2 31.6-8.9 55.3 84.9 45.4 131.8 7.3 189 16 28 4.3-3.6 31.6 16 37 42.9 11.9 54.8 3.2 112.8 4.1-38.7 10.4-85.1 22.9-123.8 29-22.3 3.5-42 4.9-56.3 2.6zM419 514.1c4.5-40.4 1-45.1-6.2-103.5-7.5-60.6-26.3-133.9-26.3-133.9s33.8 41.5 34.8 44.4c18.4 52.2 37 116.2 37.1 174.6v9.9c-0.1 5.2-24.5 6.1-39.4 8.5z m-4.4 182.4c-1.4 2-36.5-33-36.5-33l24.9-27.9s28.1 31.7 27.1 34c-4.5 9.6-9.7 18.6-15.5 26.9z m4.3-169.5c14.6 7.1 38.2 15.7 38 20.2-0.5 8.5-1.2 16.7-2.1 24.6-0.2 2.3-16.6-7.2-38.4-20.7l2.5-24.1z m-12.4 95.2l10.6-39.7c18.6 16 31.9 28 31.5 30-2.3 11-5 21.3-8.2 31.2-0.9 2.3-33.9-21.5-33.9-21.5zM396 205.7c-4.7 2.1-8 5.4-9.5 10.1-0.8 2.7-50.1-25-70.5-32.5-16.8-6.1-60.6-23.3-45.4-25.5C289.8 155 371.7 168 371.7 168c-4.4 0.5 27.5 36.3 24.3 37.7zM178.6 737.9c-4-3.8 12.8-18.6 16.4-15 42.8 42 85.8 53.1 85.8 53.1-38.4 4.6-73.1-10.1-102.2-38.1z m-21.5-24.4c-42.9-56.9-69-145.5-69-238.6 0-40.4 5.9-98.3 15.3-133.5 0 0-7.4 194 32.8 292.5 11 26.9 24.6 49 39 67 2.9 3.7-14.9 16.9-18.1 12.6z" fill="#F9C86E" p-id="4097"></path></svg>