<?xml version="1.0" standalone="no"?><!DOCTYPE svg PUBLIC "-//W3C//DTD SVG 1.1//EN" "http://www.w3.org/Graphics/SVG/1.1/DTD/svg11.dtd"><svg t="1591097576757" class="icon" viewBox="0 0 1024 1024" version="1.1" xmlns="http://www.w3.org/2000/svg" p-id="9579" xmlns:xlink="http://www.w3.org/1999/xlink" width="200" height="200"><defs><style type="text/css"></style></defs><path d="M992.789424 374.860956C1043.467993 406.766301 1029.76491 481.596553 970.636107 495.607955c-146.668665 34.760154-282.706021 15.027714-369.869048-67.08801-94.322888-88.373466-111.291872-230.474437-61.241362-380.911449 19.287089-57.97546 99.82696-64.176105 133.171128-12.127229a157.973708 157.973708 0 0 0 24.962449 30.009752c37.021163 34.805831 88.658947 50.541538 145.469646 48.71446 44.53502-1.427404 82.515398 33.92655 75.90366 75.366956-10.345828 64.84984 5.092979 124.972117 48.840072 166.081366a163.18088 163.18088 0 0 0 24.916772 19.207155z" fill="#FF5850" p-id="9580"></path><path d="M608.052531 73.09623a3.562802 3.562802 0 0 1 3.083194 1.79282A232.141645 232.141645 0 0 0 647.597345 118.773173c47.81234 44.911854 112.388119 68.663865 186.750182 68.663865 3.676994 0 7.422503-0.068515 11.122336-0.182708h0.057096c-11.35072 87.197285 14.742233 167.565866 72.318021 221.647368a234.973615 234.973615 0 0 0 22.461636 18.624773c-35.582339 7.559534-70.068431 11.419236-102.670349 11.419236-54.424078 0-131.001473-11.019563-186.78444-63.570886l-0.068516-0.068515-0.079934-0.068515c-33.800938-31.67696-54.812332-73.619813-62.440382-124.663798-7.856434-52.528485-1.016312-113.849781 19.789536-177.420667M607.504408 0.013121c-29.14189 0-57.552949 16.215315-68.00155 47.606794-50.050511 150.437013-33.115784 292.537983 61.241362 380.911449 59.973827 56.502379 143.083025 83.463195 236.892047 83.463195 42.513815 0 87.231542-5.538329 132.977001-16.375184 59.151642-14.022822 72.854725-88.853074 22.176156-120.758419a163.18088 163.18088 0 0 1-24.916772-19.218574c-43.747092-41.109249-59.185899-101.231526-48.840072-166.081366 6.486126-40.618222-29.849882-75.366956-73.288655-75.366956h-2.615005c-2.934744 0.091354-5.858068 0.14845-8.781393 0.14845-53.339251 0-101.631199-15.861319-136.711091-48.851491a157.973708 157.973708 0 0 1-24.962449-30.009752A76.817199 76.817199 0 0 0 607.504408 0.013121z" fill="#471D18" p-id="9581"></path><path d="M31.186995 649.139581C-19.491574 617.234236-5.788491 542.426822 53.363151 528.381162c146.668665-34.760154 282.706021-15.027714 369.869048 67.088011 94.322888 88.373466 111.291872 230.474437 61.241362 380.911449-19.287089 57.97546-99.82696 64.164686-133.171128 12.127228a157.973708 157.973708 0 0 0-24.96245-30.009751c-37.044001-34.794412-88.681785-50.530119-145.492483-48.703041-44.53502 1.427404-82.515398-33.92655-75.903661-75.366957 10.345828-64.84984-5.092979-124.972117-48.851491-166.081365a163.089526 163.089526 0 0 0-24.905353-19.207155z" fill="#FF5850" p-id="9582"></path><path d="M186.351571 585.077668c54.412659 0 130.990054 11.030982 186.773021 63.582305l0.068516 0.068515 0.068515 0.068516c33.812357 31.67696 54.812332 73.619813 62.451801 124.663797 7.856434 52.528485 1.016312 113.849781-19.789536 177.420667a3.58564 3.58564 0 0 1-3.083193-1.79282 232.141645 232.141645 0 0 0-36.46162-43.861285c-47.81234-44.911854-112.388119-68.652446-186.773021-68.663865-3.665575 0-7.399665 0.068515-11.099498 0.182708 11.35072-87.197285-14.742233-167.565866-72.31802-221.647367a233.7175 233.7175 0 0 0-22.473056-18.624774 496.953724 496.953724 0 0 1 102.681768-11.419235m0-73.08311c-42.513815 0-87.231542 5.549749-132.977001 16.386604C-5.788491 542.426822-19.491574 617.234236 31.186995 649.139581a163.740422 163.740422 0 0 1 24.916773 19.218574c43.747092 41.109249 59.185899 101.231526 48.840071 166.081366-6.486126 40.618222 29.849882 75.366956 73.288656 75.366956h2.615005c2.934744-0.091354 5.858068-0.14845 8.781392-0.14845 53.339251 0 101.631199 15.849899 136.711091 48.851491a157.973708 157.973708 0 0 1 24.96245 30.009752 76.817199 76.817199 0 0 0 65.169579 35.479565c29.14189 0 57.552949-16.215315 68.001549-47.606794 50.050511-150.437013 33.115784-292.537983-61.241362-380.911449-59.973827-56.502379-143.083025-83.474614-236.892047-83.474614z" fill="#471D18" p-id="9583"></path><path d="M511.9825 511.994559m-255.996429 0a255.996429 255.996429 0 1 0 511.992858 0 255.996429 255.996429 0 1 0-511.992858 0Z" fill="#FF5850" p-id="9584"></path><path d="M632.010088 285.848013a254.877344 254.877344 0 0 1 29.838463 120.016168c0 141.381559-114.61487 255.996429-255.996429 255.996429a254.877344 254.877344 0 0 1-120.016168-29.838464 255.950752 255.950752 0 0 0 226.100869 135.968841c141.381559 0 255.996429-114.61487 255.996429-255.996428a255.950752 255.950752 0 0 0-135.923164-226.146546z" fill="#FF3B35" p-id="9585"></path><path d="M691.652756 586.607846a4.270794 4.270794 0 0 0-4.92169-0.787928 183.05035 183.05035 0 0 1-245.136736-245.136735A4.270794 4.270794 0 0 0 440.783565 335.738654l-3.871121-3.871121c-25.225092-25.213673-68.127161-13.828695-77.776415 20.497528a255.414048 255.414048 0 0 0-9.489385 65.089644c-2.38662 144.179271 116.076532 262.642424 260.267222 260.267223a255.139986 255.139986 0 0 0 83.897126-15.575837c25.053803-9.192485 31.97386-41.371891 13.132121-60.247889z" fill="#471D18" p-id="9586"></path><path d="M404.24201 318.244385a46.579063 46.579063 0 0 0-45.094562 34.143515 255.414048 255.414048 0 0 0-9.489385 65.089644c-2.363782 142.740448 113.747008 260.358577 255.996428 260.358577h4.270795a255.139986 255.139986 0 0 0 83.897125-15.575838c25.053803-9.192485 31.97386-41.371891 13.132121-60.247888l-15.313195-15.313196a4.247956 4.247956 0 0 0-2.99184-1.233277 4.419244 4.419244 0 0 0-1.92985 0.44535 183.05035 183.05035 0 0 1-245.125317-245.228089A4.270794 4.270794 0 0 0 440.783565 335.738654l-3.871121-3.871121A45.836813 45.836813 0 0 0 404.24201 318.244385z" fill="#F4F4ED" p-id="9587"></path><path d="M715.644571 497.103875a182.9019 182.9019 0 0 1-178.688202-178.688202l-25.122319-25.122319c-17.699816-17.699816-47.96079-5.23001-48.052144 19.800955v2.420878c0.719412 139.87422 114.786158 253.952385 254.648958 254.648959h2.420878c25.042384-0.102773 37.523609-30.363748 19.812375-48.063564z" fill="#471D18" p-id="9588"></path><path d="M492.170126 285.037247a28.136997 28.136997 0 0 0-28.353963 28.102739v2.420878c0.719412 139.87422 114.786158 253.952385 254.648959 254.648959h2.420878c25.042384-0.102773 37.523609-30.363748 19.812374-48.063564l-25.053803-25.042384a182.9019 182.9019 0 0 1-178.688202-178.688202l-25.122319-25.122319A27.554616 27.554616 0 0 0 492.170126 285.037247z" fill="#F4F4ED" p-id="9589"></path><path d="M511.9825 329.092659a182.890481 182.890481 0 1 1-129.334265 53.567635 181.748557 181.748557 0 0 1 129.334265-53.567635m0-73.08311c-141.370139 0-255.985009 114.603451-255.985009 255.98501s114.61487 255.996429 255.985009 255.996428 255.996429-114.61487 255.996429-255.996428-114.61487-255.985009-255.996429-255.98501z" fill="#471D18" p-id="9590"></path><path d="M639.946457 342.167684a36.541555 36.541555 0 0 1-35.331116-45.962425c11.624782-43.564385 12.481225-59.76828 12.481225-59.973826v0.879281h73.083109c0 5.138656-1.073408 25.955923-14.93636 77.924865a36.541555 36.541555 0 0 1-35.296858 27.132105zM714.845224 424.203474a36.541555 36.541555 0 0 1-12.435547-70.924874c64.427329-23.295241 92.64426-22.655764 101.791068-21.296875a36.541555 36.541555 0 0 1-8.6672 72.534986c-2.409459 0-22.004867 0.765089-68.264192 17.494269a36.541555 36.541555 0 0 1-12.424129 2.192494zM793.569436 404.254069z m-0.057096 0z m0 0zM408.649835 793.330272v-0.879282h-73.083109c0-5.150075 1.073408-25.955923 14.93636-77.936284a36.541555 36.541555 0 0 1 70.616555 18.83032c-11.601944 43.564385-12.458386 59.7797-12.469806 59.985246zM230.15576 698.116683a59.962407 59.962407 0 0 1-8.598685-0.536704 36.541555 36.541555 0 0 1 8.6672-72.546405c2.409459 0 22.004867-0.75367 68.264192-17.48285a36.541555 36.541555 0 1 1 24.859677 68.720961c-50.712826 18.339293-78.975435 21.844998-93.192384 21.844998z m2.08972-72.843305z m0 0z m0 0z" fill="#471D18" p-id="9591"></path></svg>